<svg width="361" height="304" viewBox="0 0 361 304" fill="none" xmlns="http://www.w3.org/2000/svg">
<path d="M183.786 40.4905C181.409 40.2435 179.157 39.2969 177.317 37.7705C175.478 36.244 174.132 34.2063 173.45 31.9149C172.768 29.6235 172.781 27.1814 173.487 24.8975C174.193 22.6135 175.561 20.5902 177.417 19.0834C179.273 17.5767 181.534 16.6542 183.915 16.4326C186.295 16.2109 188.688 16.7001 190.79 17.8383C192.892 18.9765 194.61 20.7125 195.726 22.8268C196.841 24.9412 197.305 27.3389 197.058 29.7167C196.724 32.904 195.138 35.8285 192.65 37.8483C190.162 39.8681 186.974 40.8184 183.786 40.4905ZM185.877 20.3646C184.274 20.1981 182.658 20.5106 181.233 21.2626C179.808 22.0146 178.638 23.1722 177.871 24.5892C177.104 26.0062 176.774 27.6188 176.923 29.2231C177.073 30.8275 177.695 32.3515 178.71 33.6025C179.726 34.8535 181.089 35.7752 182.629 36.2512C184.168 36.7271 185.814 36.7359 187.359 36.2764C188.903 35.8169 190.276 34.9098 191.305 33.6697C192.334 32.4296 192.972 30.9123 193.139 29.3096C193.36 27.1609 192.719 25.0123 191.358 23.3353C189.996 21.6583 188.025 20.5899 185.877 20.3646Z" fill="#9B9B9B"/>
<path d="M307.379 253.912C295.14 252.136 296.676 256.861 279.157 255.041C263.14 253.377 264.639 243.3 254.137 240.034C234.816 234.02 216.452 252.384 209.845 241.524C198.085 213.309 157.085 195.512 133.363 233.579C124.665 242.849 108.634 223.032 90.3228 223.017C79.053 223.007 78.7697 234.225 62.7524 232.561C45.2335 230.741 47.7084 226.433 35.3652 225.656C22.0777 224.819 17.2944 232.405 17.2944 232.405L323.677 264.231C323.677 264.231 320.554 255.827 307.379 253.912Z" fill="#E4DEFF"/>
<path d="M163.028 156.822L168.651 154.848C168.721 154.824 168.798 154.828 168.865 154.86C168.932 154.892 168.984 154.95 169.008 155.02L170.215 158.457L164.072 160.613L162.863 157.167C162.839 157.099 162.843 157.025 162.874 156.96C162.905 156.896 162.96 156.846 163.028 156.822Z" fill="#FF4766"/>
<path d="M164.373 159.467L163.741 157.664C163.727 157.624 163.721 157.582 163.723 157.54C163.726 157.498 163.736 157.457 163.755 157.419C163.773 157.381 163.799 157.348 163.83 157.32C163.862 157.292 163.899 157.271 163.939 157.257L168.212 155.778C168.292 155.751 168.38 155.757 168.456 155.794C168.531 155.831 168.59 155.896 168.617 155.976L169.244 157.756C169.258 157.795 169.264 157.837 169.261 157.879C169.259 157.921 169.248 157.962 169.229 158C169.211 158.038 169.185 158.071 169.154 158.099C169.122 158.127 169.086 158.148 169.046 158.162L164.78 159.659C164.701 159.687 164.613 159.683 164.537 159.647C164.461 159.611 164.402 159.546 164.373 159.467Z" fill="#98D1F0"/>
<path d="M175.574 156.577L138.146 169.713C137.61 169.901 137.327 170.488 137.516 171.025L145.723 194.409C145.911 194.946 146.498 195.228 147.035 195.04L184.463 181.903C184.999 181.715 185.282 181.128 185.093 180.591L176.886 157.207C176.698 156.671 176.111 156.388 175.574 156.577Z" fill="#FF4766"/>
<path d="M145.14 192.781L145.185 192.908C145.299 193.234 145.477 193.536 145.707 193.794C145.938 194.052 146.218 194.262 146.53 194.412C146.842 194.562 147.18 194.649 147.526 194.668C147.872 194.687 148.218 194.638 148.545 194.524L182.939 182.455C183.266 182.34 183.567 182.162 183.825 181.931C184.083 181.7 184.293 181.421 184.443 181.109C184.593 180.796 184.68 180.458 184.699 180.112C184.718 179.766 184.668 179.42 184.553 179.093L184.509 178.967L145.14 192.781Z" fill="#FF627C"/>
<path d="M169.85 178.538C171.351 173.817 168.741 168.774 164.02 167.272C159.3 165.771 154.256 168.381 152.755 173.102C151.254 177.823 153.863 182.866 158.584 184.368C163.305 185.869 168.349 183.259 169.85 178.538Z" fill="#434142"/>
<path d="M168.725 178.814C170.383 174.711 168.401 170.041 164.297 168.383C160.194 166.725 155.524 168.708 153.866 172.811C152.208 176.914 154.191 181.584 158.294 183.242C162.397 184.9 167.067 182.918 168.725 178.814Z" fill="#1C1F1B"/>
<path d="M164.642 181.443C167.713 179.595 168.705 175.608 166.857 172.537C165.008 169.466 161.021 168.475 157.95 170.323C154.879 172.171 153.888 176.158 155.736 179.229C157.584 182.3 161.572 183.291 164.642 181.443Z" fill="#98D1F0"/>
<path d="M161.771 173.782C161.692 173.558 161.682 173.315 161.741 173.084C161.8 172.854 161.926 172.646 162.103 172.487C162.28 172.329 162.5 172.226 162.736 172.192C162.971 172.159 163.212 172.196 163.426 172.299C163.641 172.402 163.82 172.566 163.941 172.771C164.062 172.975 164.12 173.211 164.107 173.449C164.094 173.687 164.01 173.915 163.868 174.105C163.725 174.295 163.529 174.439 163.304 174.518C163.003 174.623 162.673 174.605 162.386 174.467C162.098 174.329 161.877 174.083 161.771 173.782Z" fill="#A2DEFF"/>
<path d="M141.875 171.341L141.156 171.592C140.976 171.656 140.829 171.788 140.747 171.959C140.664 172.131 140.653 172.328 140.716 172.508L141.053 173.467C141.084 173.556 141.132 173.638 141.195 173.708C141.258 173.779 141.334 173.836 141.419 173.877C141.503 173.918 141.596 173.942 141.69 173.947C141.784 173.952 141.878 173.939 141.967 173.908L142.687 173.655L141.875 171.341Z" fill="#98D1F0"/>
<path d="M146.745 169.633L142.115 171.257L142.927 173.571L147.557 171.947C147.736 171.884 147.883 171.752 147.966 171.58C148.048 171.409 148.059 171.211 147.996 171.031L147.66 170.072C147.629 169.983 147.58 169.901 147.518 169.831C147.455 169.76 147.379 169.703 147.294 169.662C147.209 169.622 147.117 169.598 147.023 169.593C146.928 169.588 146.834 169.602 146.745 169.633Z" fill="#98D1F0"/>
<path d="M171.544 164.41L178.552 161.95L183.736 176.721L176.771 179.166C176.643 179.211 176.502 179.203 176.38 179.144C176.258 179.085 176.164 178.981 176.119 178.853L171.261 165.012C171.239 164.954 171.23 164.892 171.232 164.83C171.235 164.768 171.25 164.707 171.276 164.651C171.302 164.595 171.34 164.545 171.386 164.504C171.432 164.462 171.486 164.43 171.544 164.41Z" fill="#434142"/>
<path d="M150.104 179.211C150.057 179.077 150.051 178.932 150.086 178.794C150.121 178.656 150.196 178.531 150.303 178.436C150.409 178.341 150.54 178.28 150.681 178.259C150.822 178.239 150.966 178.261 151.095 178.323C151.223 178.385 151.33 178.483 151.403 178.606C151.475 178.728 151.51 178.87 151.502 179.012C151.494 179.154 151.444 179.291 151.359 179.405C151.273 179.518 151.155 179.604 151.021 179.651C150.841 179.714 150.644 179.703 150.472 179.62C150.3 179.538 150.168 179.391 150.104 179.211Z" fill="#434142"/>
<path d="M179.021 163.293L172.957 165.422L173.349 166.539L179.413 164.411L179.021 163.293Z" fill="#1C1F1B"/>
<path d="M179.797 165.489L173.732 167.617L174.125 168.734L180.189 166.606L179.797 165.489Z" fill="#1C1F1B"/>
<path d="M180.568 167.682L174.503 169.811L174.895 170.928L180.96 168.799L180.568 167.682Z" fill="#1C1F1B"/>
<path d="M181.335 169.875L175.27 172.004L175.662 173.121L181.727 170.993L181.335 169.875Z" fill="#1C1F1B"/>
<path d="M182.106 172.07L176.041 174.198L176.433 175.316L182.498 173.187L182.106 172.07Z" fill="#1C1F1B"/>
<path d="M182.875 174.265L176.81 176.394L177.202 177.511L183.267 175.382L182.875 174.265Z" fill="#1C1F1B"/>
<path d="M245.45 146.906L242.3 145.904L235.53 167.191L238.681 168.193L245.45 146.906Z" fill="#D7D8DC"/>
<path d="M275.258 156.379L272.107 155.377L265.338 176.664L268.489 177.666L275.258 156.379Z" fill="#D7D8DC"/>
<path d="M276.558 152.834L243.284 142.254C243.221 142.233 243.155 142.226 243.09 142.231C243.024 142.237 242.96 142.255 242.901 142.285C242.843 142.316 242.791 142.357 242.748 142.408C242.706 142.458 242.674 142.516 242.654 142.579L240.666 148.824C240.646 148.887 240.639 148.953 240.645 149.019C240.65 149.085 240.669 149.149 240.699 149.207C240.73 149.266 240.771 149.318 240.822 149.36C240.872 149.403 240.931 149.435 240.994 149.455L245.044 150.743C245.171 150.784 245.309 150.772 245.427 150.711C245.546 150.649 245.635 150.544 245.676 150.416L246.086 149.124C246.127 148.997 246.216 148.891 246.334 148.83C246.452 148.769 246.59 148.758 246.717 148.798L269.974 156.2C270.037 156.22 270.096 156.252 270.146 156.295C270.197 156.337 270.238 156.389 270.269 156.448C270.299 156.506 270.318 156.57 270.323 156.636C270.329 156.702 270.321 156.768 270.301 156.831L269.89 158.124C269.85 158.251 269.862 158.388 269.923 158.507C269.984 158.625 270.09 158.714 270.217 158.755L274.267 160.043C274.33 160.063 274.396 160.071 274.462 160.065C274.528 160.059 274.592 160.041 274.65 160.01C274.709 159.98 274.761 159.938 274.803 159.888C274.846 159.837 274.878 159.779 274.898 159.716L276.885 153.471C276.906 153.408 276.914 153.341 276.908 153.275C276.903 153.209 276.885 153.144 276.855 153.085C276.824 153.026 276.782 152.973 276.732 152.93C276.681 152.887 276.622 152.855 276.558 152.834Z" fill="#FF9B19"/>
<path d="M278.869 180.962L225.151 163.88C224.488 163.669 223.779 164.036 223.568 164.699L200.541 237.111C200.33 237.775 200.697 238.483 201.36 238.694L255.078 255.776C255.741 255.987 256.45 255.62 256.661 254.957L279.688 182.545C279.899 181.881 279.532 181.173 278.869 180.962Z" fill="#FF9B19"/>
<path d="M229.648 165.313L229.614 165.309C228.111 164.832 226.479 164.971 225.078 165.696C223.677 166.42 222.621 167.672 222.143 169.175L222.101 169.31L226.325 170.652C226.519 170.715 226.724 170.738 226.928 170.721C227.131 170.704 227.329 170.647 227.511 170.554C227.692 170.46 227.854 170.331 227.985 170.175C228.117 170.018 228.216 169.838 228.277 169.643L229.648 165.313Z" fill="#75532F"/>
<path d="M226.211 169.121C226.248 169.008 226.317 168.907 226.41 168.833C226.504 168.759 226.617 168.714 226.736 168.704C226.855 168.694 226.975 168.72 227.079 168.778C227.184 168.836 227.268 168.923 227.323 169.029C227.378 169.136 227.399 169.256 227.386 169.374C227.372 169.493 227.323 169.605 227.246 169.696C227.169 169.787 227.066 169.853 226.951 169.886C226.836 169.918 226.714 169.916 226.6 169.879C226.449 169.83 226.323 169.722 226.25 169.581C226.177 169.439 226.163 169.274 226.211 169.121Z" fill="#FFAE45"/>
<path d="M274.562 179.605L273.141 184.075C273.031 184.427 273.066 184.808 273.236 185.135C273.406 185.461 273.699 185.708 274.051 185.819L278.229 187.149L278.272 187.015C278.74 185.54 278.614 183.941 277.922 182.557C277.229 181.173 276.024 180.114 274.562 179.605Z" fill="#75532F"/>
<path d="M274.103 184.352C274.139 184.237 274.209 184.137 274.302 184.062C274.396 183.987 274.51 183.942 274.629 183.932C274.749 183.922 274.868 183.947 274.973 184.005C275.078 184.063 275.163 184.151 275.218 184.258C275.273 184.365 275.295 184.485 275.281 184.604C275.267 184.723 275.218 184.836 275.14 184.927C275.063 185.018 274.96 185.084 274.844 185.117C274.729 185.149 274.606 185.147 274.492 185.11C274.34 185.061 274.214 184.953 274.141 184.811C274.068 184.669 274.055 184.504 274.103 184.352Z" fill="#FFAE45"/>
<path d="M215.454 190.216L201.724 233.391C200.859 236.106 202.687 239.127 205.824 240.123L250.608 254.365C253.738 255.36 256.978 253.961 257.843 251.236L271.573 208.063L215.454 190.216Z" fill="#FFB85C"/>
<path d="M263.943 210.585L220.223 196.682C219.948 196.594 219.654 196.746 219.567 197.021L207.525 234.889C207.438 235.164 207.59 235.458 207.865 235.545L251.585 249.448C251.859 249.535 252.153 249.383 252.241 249.108L264.282 211.241C264.37 210.966 264.218 210.672 263.943 210.585Z" fill="#FFAE45"/>
<path d="M261.515 211.796L259.566 211.177C259.527 211.165 259.49 211.145 259.458 211.119C259.426 211.092 259.4 211.059 259.381 211.022C259.362 210.985 259.35 210.945 259.347 210.903C259.344 210.862 259.35 210.82 259.363 210.781C259.375 210.741 259.395 210.704 259.421 210.672C259.448 210.64 259.481 210.614 259.518 210.595C259.554 210.576 259.595 210.565 259.636 210.562C259.677 210.559 259.719 210.564 259.758 210.577L261.706 211.195C261.786 211.221 261.852 211.277 261.891 211.351C261.93 211.425 261.937 211.512 261.912 211.592C261.887 211.672 261.831 211.739 261.756 211.778C261.682 211.817 261.595 211.824 261.515 211.799L261.515 211.796Z" fill="#FFB657"/>
<path d="M216.867 210.706C216.827 210.694 216.791 210.674 216.759 210.648C216.726 210.621 216.7 210.589 216.681 210.552C216.662 210.515 216.65 210.475 216.647 210.433C216.644 210.392 216.649 210.35 216.662 210.311L220.177 199.259C220.275 198.953 220.49 198.699 220.775 198.551C221.06 198.404 221.391 198.375 221.697 198.472L255.256 209.153C255.336 209.178 255.402 209.234 255.441 209.309C255.479 209.383 255.487 209.47 255.461 209.55C255.436 209.63 255.379 209.697 255.305 209.735C255.23 209.774 255.144 209.781 255.063 209.756L221.504 199.083C221.358 199.037 221.199 199.051 221.062 199.122C220.926 199.193 220.823 199.315 220.776 199.461L217.267 210.504C217.255 210.544 217.234 210.582 217.208 210.613C217.181 210.645 217.147 210.672 217.11 210.69C217.073 210.709 217.032 210.72 216.99 210.723C216.949 210.726 216.907 210.72 216.867 210.706Z" fill="#FFB657"/>
<path d="M212.059 225.824C212.02 225.812 211.983 225.792 211.951 225.765C211.919 225.739 211.893 225.706 211.874 225.669C211.855 225.632 211.844 225.592 211.84 225.551C211.837 225.509 211.842 225.468 211.856 225.429L215.545 213.824C215.57 213.744 215.627 213.678 215.701 213.639C215.776 213.601 215.863 213.593 215.943 213.619C216.023 213.644 216.089 213.7 216.128 213.775C216.166 213.849 216.174 213.936 216.148 214.016L212.459 225.621C212.447 225.661 212.427 225.698 212.4 225.73C212.373 225.762 212.34 225.789 212.303 225.808C212.265 225.827 212.224 225.838 212.183 225.841C212.141 225.843 212.099 225.838 212.059 225.824Z" fill="#FFB657"/>
<path d="M230.656 241.472L210.101 234.935C209.796 234.837 209.541 234.622 209.394 234.337C209.247 234.052 209.218 233.721 209.315 233.415L210.738 228.941C210.763 228.861 210.82 228.794 210.894 228.756C210.969 228.717 211.056 228.71 211.136 228.735C211.216 228.761 211.282 228.817 211.321 228.891C211.359 228.966 211.367 229.053 211.341 229.133L209.918 233.607C209.872 233.753 209.886 233.912 209.957 234.049C210.028 234.185 210.15 234.288 210.296 234.335L230.85 240.872C230.93 240.897 230.996 240.953 231.035 241.028C231.074 241.102 231.081 241.189 231.056 241.269C231.031 241.349 230.975 241.416 230.9 241.454C230.826 241.493 230.739 241.501 230.659 241.475L230.656 241.472Z" fill="#FFB657"/>
<path d="M259.344 213.256C259.312 213.337 259.251 213.403 259.173 213.44C259.095 213.477 259.005 213.484 258.923 213.457C258.84 213.431 258.77 213.374 258.728 213.299C258.686 213.223 258.674 213.134 258.695 213.05C258.663 213.131 258.602 213.196 258.524 213.234C258.446 213.271 258.356 213.277 258.274 213.251C258.191 213.225 258.122 213.168 258.079 213.093C258.037 213.017 258.025 212.928 258.046 212.844C257.961 212.817 257.869 212.824 257.789 212.864C257.71 212.905 257.65 212.975 257.622 213.06C257.423 213.09 257.221 213.041 257.058 212.924C256.895 212.806 256.785 212.629 256.752 212.431C256.739 212.473 256.717 212.512 256.688 212.546C256.659 212.581 256.624 212.609 256.585 212.629C256.505 212.67 256.412 212.678 256.326 212.651C256.24 212.624 256.168 212.564 256.127 212.484C256.086 212.404 256.078 212.31 256.105 212.225C256.074 212.305 256.013 212.371 255.934 212.409C255.856 212.446 255.767 212.452 255.684 212.426C255.601 212.4 255.532 212.343 255.49 212.267C255.447 212.192 255.436 212.103 255.456 212.019C255.425 212.099 255.364 212.165 255.286 212.203C255.208 212.24 255.118 212.246 255.035 212.22C254.953 212.194 254.883 212.137 254.841 212.061C254.799 211.986 254.787 211.897 254.808 211.812C254.794 211.855 254.773 211.894 254.744 211.928C254.715 211.963 254.68 211.991 254.64 212.011C254.56 212.052 254.467 212.06 254.381 212.033C254.296 212.006 254.224 211.945 254.183 211.866C254.141 211.786 254.133 211.692 254.161 211.607C254.129 211.687 254.068 211.753 253.99 211.791C253.912 211.828 253.822 211.834 253.74 211.808C253.657 211.782 253.588 211.725 253.545 211.649C253.503 211.574 253.491 211.485 253.512 211.4C253.481 211.481 253.42 211.547 253.341 211.584C253.263 211.622 253.174 211.628 253.091 211.602C253.008 211.576 252.939 211.519 252.897 211.443C252.854 211.368 252.843 211.279 252.863 211.194C252.836 211.28 252.776 211.352 252.696 211.393C252.616 211.434 252.523 211.442 252.437 211.415C252.351 211.388 252.28 211.327 252.238 211.247C252.197 211.167 252.189 211.074 252.216 210.989C252.185 211.069 252.124 211.135 252.046 211.172C251.967 211.21 251.878 211.216 251.795 211.19C251.713 211.164 251.643 211.107 251.601 211.031C251.559 210.956 251.547 210.867 251.568 210.782C251.536 210.863 251.475 210.929 251.397 210.966C251.319 211.004 251.229 211.01 251.147 210.984C251.064 210.958 250.995 210.901 250.952 210.825C250.91 210.749 250.898 210.661 250.919 210.576C250.906 210.619 250.884 210.658 250.855 210.692C250.826 210.726 250.791 210.755 250.752 210.775C250.672 210.816 250.578 210.824 250.493 210.797C250.407 210.77 250.335 210.709 250.294 210.629C250.253 210.549 250.245 210.456 250.272 210.371C250.241 210.451 250.18 210.517 250.101 210.554C250.023 210.592 249.934 210.598 249.851 210.572C249.768 210.546 249.699 210.489 249.657 210.413C249.614 210.337 249.602 210.249 249.623 210.164C249.61 210.207 249.588 210.246 249.559 210.28C249.531 210.315 249.495 210.343 249.456 210.363C249.376 210.404 249.283 210.412 249.197 210.385C249.111 210.358 249.04 210.297 248.998 210.217C248.957 210.137 248.949 210.044 248.976 209.959C248.945 210.039 248.884 210.105 248.806 210.143C248.727 210.18 248.638 210.186 248.555 210.16C248.473 210.134 248.403 210.077 248.361 210.001C248.319 209.926 248.307 209.837 248.328 209.752C248.296 209.833 248.235 209.899 248.157 209.936C248.079 209.974 247.989 209.98 247.907 209.954C247.824 209.928 247.754 209.871 247.712 209.795C247.67 209.719 247.658 209.631 247.679 209.546C247.652 209.632 247.591 209.704 247.511 209.745C247.431 209.786 247.338 209.794 247.252 209.767C247.167 209.74 247.095 209.679 247.054 209.599C247.012 209.519 247.005 209.426 247.032 209.341C247 209.421 246.939 209.487 246.861 209.524C246.783 209.562 246.693 209.568 246.611 209.542C246.528 209.516 246.459 209.459 246.416 209.383C246.374 209.308 246.362 209.219 246.383 209.134C246.352 209.216 246.291 209.282 246.212 209.32C246.134 209.358 246.044 209.364 245.961 209.337C245.878 209.311 245.808 209.253 245.766 209.177C245.724 209.101 245.713 209.011 245.735 208.927C245.721 208.969 245.699 209.009 245.671 209.043C245.642 209.077 245.607 209.105 245.567 209.125C245.487 209.167 245.394 209.175 245.308 209.147C245.222 209.12 245.151 209.06 245.11 208.98C245.068 208.9 245.06 208.807 245.088 208.721C245.056 208.802 244.995 208.868 244.917 208.905C244.839 208.942 244.749 208.949 244.667 208.922C244.584 208.896 244.515 208.839 244.472 208.764C244.43 208.688 244.418 208.599 244.439 208.515C244.408 208.596 244.347 208.661 244.268 208.699C244.19 208.736 244.101 208.742 244.018 208.716C243.935 208.69 243.866 208.633 243.824 208.558C243.781 208.482 243.769 208.393 243.79 208.309C243.777 208.351 243.755 208.391 243.726 208.425C243.698 208.459 243.662 208.487 243.623 208.507C243.543 208.549 243.45 208.557 243.364 208.529C243.278 208.502 243.207 208.442 243.165 208.362C243.124 208.282 243.116 208.189 243.143 208.103C243.112 208.184 243.051 208.249 242.973 208.287C242.894 208.324 242.805 208.33 242.722 208.304C242.64 208.278 242.57 208.221 242.528 208.146C242.486 208.07 242.474 207.981 242.495 207.897C242.463 207.978 242.402 208.043 242.324 208.081C242.246 208.118 242.156 208.124 242.074 208.098C241.991 208.072 241.922 208.015 241.879 207.94C241.837 207.864 241.825 207.775 241.846 207.691C241.832 207.733 241.811 207.773 241.782 207.807C241.753 207.841 241.718 207.869 241.678 207.889C241.598 207.931 241.505 207.939 241.42 207.911C241.334 207.884 241.262 207.824 241.221 207.744C241.18 207.664 241.172 207.571 241.199 207.485C241.167 207.566 241.106 207.631 241.028 207.669C240.95 207.706 240.861 207.712 240.778 207.686C240.695 207.66 240.626 207.603 240.583 207.528C240.541 207.452 240.529 207.363 240.55 207.279C240.537 207.321 240.515 207.361 240.486 207.395C240.457 207.429 240.422 207.457 240.383 207.477C240.343 207.498 240.3 207.51 240.255 207.514C240.211 207.518 240.166 207.513 240.124 207.499C240.081 207.486 240.042 207.464 240.008 207.435C239.974 207.407 239.946 207.371 239.925 207.332C239.905 207.292 239.892 207.249 239.888 207.205C239.885 207.16 239.89 207.115 239.903 207.073C239.872 207.154 239.811 207.219 239.733 207.257C239.654 207.294 239.565 207.3 239.482 207.274C239.4 207.248 239.33 207.191 239.288 207.116C239.245 207.04 239.234 206.951 239.255 206.867C239.223 206.948 239.162 207.013 239.084 207.051C239.006 207.088 238.916 207.094 238.834 207.068C238.751 207.042 238.681 206.985 238.639 206.91C238.597 206.834 238.585 206.745 238.606 206.661C238.592 206.703 238.571 206.743 238.542 206.777C238.513 206.811 238.478 206.839 238.438 206.859C238.358 206.901 238.265 206.909 238.179 206.881C238.094 206.854 238.022 206.794 237.981 206.714C237.939 206.634 237.931 206.541 237.959 206.455C237.927 206.536 237.866 206.601 237.788 206.639C237.71 206.676 237.62 206.682 237.538 206.656C237.455 206.63 237.386 206.573 237.343 206.498C237.301 206.422 237.289 206.333 237.31 206.249C237.279 206.33 237.218 206.395 237.139 206.433C237.061 206.47 236.972 206.476 236.889 206.45C236.807 206.424 236.737 206.367 236.695 206.291C236.652 206.216 236.641 206.127 236.662 206.043C236.648 206.085 236.626 206.125 236.597 206.159C236.569 206.193 236.534 206.221 236.494 206.241C236.414 206.283 236.321 206.291 236.235 206.263C236.149 206.236 236.078 206.176 236.036 206.096C235.995 206.016 235.987 205.923 236.014 205.837C235.983 205.918 235.922 205.983 235.844 206.021C235.766 206.058 235.676 206.064 235.593 206.038C235.511 206.012 235.441 205.955 235.399 205.88C235.357 205.804 235.345 205.715 235.366 205.631C235.335 205.712 235.274 205.779 235.195 205.816C235.116 205.854 235.026 205.86 234.943 205.834C234.86 205.807 234.791 205.75 234.749 205.673C234.707 205.597 234.695 205.508 234.717 205.423C234.704 205.466 234.682 205.505 234.653 205.539C234.625 205.573 234.589 205.601 234.55 205.622C234.47 205.663 234.377 205.671 234.291 205.644C234.205 205.616 234.134 205.556 234.092 205.476C234.051 205.396 234.043 205.303 234.07 205.217C234.039 205.298 233.978 205.364 233.9 205.401C233.821 205.439 233.732 205.445 233.649 205.419C233.567 205.392 233.497 205.336 233.455 205.26C233.412 205.184 233.401 205.095 233.422 205.011C233.408 205.054 233.386 205.093 233.358 205.127C233.329 205.161 233.294 205.189 233.254 205.21C233.174 205.251 233.081 205.259 232.995 205.232C232.909 205.205 232.838 205.144 232.796 205.064C232.755 204.984 232.747 204.891 232.774 204.805C232.743 204.886 232.682 204.952 232.604 204.989C232.526 205.027 232.436 205.033 232.353 205.007C232.271 204.98 232.201 204.924 232.159 204.848C232.117 204.772 232.105 204.683 232.126 204.599C232.094 204.68 232.033 204.746 231.955 204.783C231.877 204.821 231.787 204.827 231.705 204.801C231.622 204.774 231.553 204.718 231.51 204.642C231.468 204.566 231.456 204.477 231.477 204.393C231.464 204.436 231.442 204.475 231.413 204.509C231.384 204.543 231.349 204.571 231.31 204.592C231.27 204.612 231.227 204.625 231.182 204.629C231.138 204.632 231.093 204.627 231.051 204.614C231.008 204.6 230.969 204.579 230.935 204.55C230.901 204.521 230.873 204.486 230.852 204.446C230.832 204.407 230.819 204.363 230.815 204.319C230.812 204.275 230.817 204.23 230.83 204.187C230.799 204.268 230.738 204.334 230.659 204.371C230.581 204.409 230.492 204.415 230.409 204.389C230.326 204.362 230.257 204.306 230.215 204.23C230.172 204.154 230.161 204.065 230.181 203.981C230.15 204.062 230.089 204.128 230.011 204.165C229.933 204.203 229.843 204.209 229.76 204.183C229.678 204.156 229.608 204.1 229.566 204.024C229.524 203.948 229.512 203.859 229.533 203.775C229.519 203.818 229.498 203.857 229.469 203.891C229.44 203.925 229.405 203.953 229.365 203.974C229.285 204.015 229.192 204.023 229.106 203.996C229.021 203.968 228.949 203.908 228.908 203.828C228.866 203.748 228.858 203.655 228.886 203.569C228.854 203.65 228.793 203.716 228.715 203.753C228.637 203.791 228.547 203.797 228.465 203.771C228.382 203.744 228.313 203.688 228.27 203.612C228.228 203.536 228.216 203.447 228.237 203.363C228.206 203.444 228.145 203.51 228.066 203.547C227.988 203.585 227.899 203.591 227.816 203.565C227.733 203.538 227.664 203.482 227.622 203.406C227.579 203.33 227.567 203.241 227.588 203.157C227.575 203.2 227.553 203.239 227.524 203.273C227.496 203.307 227.46 203.335 227.421 203.356C227.341 203.397 227.248 203.405 227.162 203.378C227.076 203.35 227.005 203.29 226.963 203.21C226.922 203.13 226.914 203.037 226.941 202.951C226.91 203.032 226.849 203.098 226.771 203.135C226.692 203.173 226.603 203.179 226.52 203.153C226.438 203.126 226.368 203.07 226.326 202.994C226.284 202.918 226.272 202.829 226.293 202.745C226.279 202.788 226.257 202.827 226.229 202.861C226.2 202.895 226.165 202.923 226.125 202.944C226.045 202.985 225.952 202.993 225.866 202.966C225.78 202.938 225.709 202.878 225.668 202.798C225.626 202.718 225.618 202.625 225.646 202.539C225.614 202.62 225.553 202.686 225.475 202.723C225.397 202.761 225.307 202.767 225.225 202.741C225.142 202.714 225.072 202.658 225.03 202.582C224.988 202.506 224.976 202.417 224.997 202.333C224.966 202.414 224.905 202.48 224.826 202.517C224.748 202.555 224.659 202.561 224.576 202.535C224.493 202.508 224.424 202.452 224.382 202.376C224.339 202.3 224.327 202.211 224.348 202.127C224.335 202.17 224.313 202.209 224.284 202.243C224.256 202.277 224.22 202.305 224.181 202.326C224.101 202.367 224.008 202.375 223.922 202.348C223.836 202.32 223.765 202.26 223.723 202.18C223.682 202.1 223.674 202.007 223.701 201.921C223.67 202.003 223.609 202.069 223.53 202.107C223.452 202.144 223.362 202.151 223.279 202.124C223.196 202.098 223.126 202.04 223.084 201.964C223.042 201.888 223.031 201.798 223.053 201.714C223.021 201.794 222.96 201.86 222.882 201.898C222.804 201.935 222.714 201.941 222.632 201.915C222.549 201.889 222.48 201.832 222.437 201.756C222.395 201.681 222.383 201.592 222.404 201.508C222.391 201.55 222.369 201.589 222.34 201.624C222.311 201.658 222.276 201.686 222.237 201.706C222.157 201.748 222.063 201.755 221.978 201.728C221.892 201.701 221.82 201.641 221.779 201.561C221.738 201.481 221.73 201.387 221.757 201.302C221.714 201.288 221.669 201.283 221.625 201.287C221.58 201.291 221.537 201.303 221.497 201.324C221.457 201.345 221.422 201.373 221.393 201.407C221.364 201.441 221.342 201.481 221.329 201.524L220.962 202.674C221.16 202.647 221.362 202.698 221.524 202.816C221.686 202.934 221.796 203.111 221.831 203.309C221.862 203.228 221.923 203.162 222.001 203.125C222.079 203.087 222.169 203.081 222.252 203.107C222.334 203.133 222.404 203.19 222.446 203.266C222.488 203.342 222.5 203.43 222.479 203.515C222.507 203.429 222.567 203.357 222.647 203.316C222.727 203.275 222.82 203.267 222.906 203.294C222.992 203.321 223.063 203.382 223.104 203.462C223.146 203.542 223.154 203.635 223.126 203.721C223.158 203.64 223.219 203.574 223.297 203.537C223.375 203.499 223.465 203.493 223.547 203.519C223.63 203.545 223.699 203.602 223.742 203.678C223.784 203.753 223.796 203.842 223.775 203.927C223.802 203.841 223.863 203.769 223.943 203.728C224.023 203.687 224.116 203.679 224.201 203.706C224.287 203.733 224.359 203.794 224.4 203.874C224.441 203.954 224.449 204.047 224.422 204.132C224.453 204.052 224.515 203.986 224.593 203.949C224.671 203.911 224.76 203.905 224.843 203.931C224.926 203.957 224.995 204.014 225.037 204.09C225.08 204.165 225.092 204.254 225.071 204.339C225.102 204.258 225.163 204.192 225.241 204.155C225.32 204.117 225.409 204.111 225.492 204.137C225.574 204.163 225.644 204.22 225.686 204.296C225.728 204.372 225.74 204.46 225.719 204.545C225.747 204.459 225.807 204.387 225.887 204.346C225.968 204.305 226.061 204.297 226.147 204.325C226.232 204.352 226.304 204.413 226.345 204.493C226.386 204.573 226.394 204.666 226.366 204.752C226.398 204.671 226.459 204.605 226.537 204.568C226.615 204.531 226.705 204.524 226.787 204.551C226.87 204.577 226.939 204.634 226.982 204.709C227.024 204.785 227.036 204.874 227.015 204.958C227.046 204.877 227.107 204.812 227.186 204.774C227.264 204.737 227.353 204.731 227.436 204.757C227.519 204.783 227.588 204.84 227.63 204.915C227.673 204.991 227.685 205.08 227.664 205.164C227.691 205.078 227.751 205.007 227.831 204.966C227.911 204.924 228.004 204.916 228.09 204.944C228.176 204.971 228.247 205.031 228.289 205.111C228.33 205.191 228.338 205.284 228.311 205.37C228.342 205.289 228.403 205.223 228.481 205.186C228.56 205.149 228.649 205.142 228.732 205.169C228.814 205.195 228.884 205.252 228.926 205.327C228.968 205.403 228.98 205.492 228.959 205.576C228.991 205.495 229.052 205.43 229.13 205.392C229.208 205.355 229.298 205.349 229.38 205.375C229.463 205.401 229.532 205.458 229.575 205.533C229.617 205.609 229.629 205.698 229.608 205.782C229.635 205.696 229.696 205.625 229.775 205.584C229.855 205.542 229.949 205.534 230.034 205.562C230.12 205.589 230.192 205.649 230.233 205.729C230.274 205.809 230.282 205.902 230.255 205.988C230.286 205.907 230.347 205.842 230.426 205.804C230.504 205.767 230.593 205.761 230.676 205.787C230.759 205.813 230.828 205.87 230.87 205.945C230.913 206.021 230.925 206.11 230.904 206.194C230.931 206.108 230.991 206.037 231.071 205.996C231.151 205.954 231.244 205.946 231.33 205.974C231.416 206.001 231.487 206.061 231.529 206.141C231.57 206.221 231.578 206.314 231.551 206.4C231.582 206.319 231.643 206.253 231.721 206.216C231.8 206.179 231.889 206.172 231.972 206.199C232.054 206.225 232.124 206.282 232.166 206.357C232.208 206.433 232.22 206.522 232.199 206.606C232.231 206.525 232.292 206.46 232.37 206.422C232.448 206.385 232.538 206.379 232.62 206.405C232.703 206.431 232.773 206.488 232.815 206.563C232.857 206.639 232.869 206.728 232.848 206.812C232.875 206.726 232.936 206.655 233.016 206.614C233.096 206.572 233.189 206.564 233.275 206.592C233.36 206.619 233.432 206.679 233.473 206.759C233.515 206.839 233.522 206.932 233.495 207.018C233.527 206.937 233.588 206.872 233.666 206.834C233.744 206.797 233.834 206.791 233.916 206.817C233.999 206.843 234.068 206.9 234.111 206.975C234.153 207.051 234.165 207.14 234.144 207.224C234.175 207.143 234.236 207.078 234.314 207.04C234.393 207.003 234.482 206.997 234.565 207.023C234.647 207.049 234.717 207.106 234.759 207.181C234.802 207.257 234.813 207.346 234.792 207.43C234.82 207.344 234.88 207.273 234.96 207.232C235.04 207.19 235.133 207.182 235.219 207.21C235.305 207.237 235.376 207.297 235.418 207.377C235.459 207.457 235.467 207.55 235.44 207.636C235.471 207.555 235.532 207.49 235.61 207.452C235.688 207.415 235.778 207.409 235.861 207.435C235.943 207.461 236.013 207.518 236.055 207.593C236.097 207.669 236.109 207.758 236.088 207.842C236.12 207.761 236.181 207.696 236.259 207.658C236.337 207.621 236.427 207.615 236.509 207.641C236.592 207.667 236.661 207.724 236.704 207.8C236.746 207.875 236.758 207.964 236.737 208.048C236.822 208.076 236.914 208.068 236.994 208.028C237.073 207.987 237.133 207.917 237.161 207.832C237.36 207.802 237.562 207.851 237.725 207.968C237.888 208.086 237.998 208.263 238.031 208.462C238.058 208.376 238.118 208.304 238.198 208.263C238.278 208.222 238.372 208.214 238.457 208.241C238.543 208.268 238.615 208.329 238.656 208.409C238.697 208.489 238.705 208.582 238.678 208.668C238.709 208.587 238.77 208.521 238.849 208.484C238.927 208.446 239.016 208.44 239.099 208.466C239.182 208.492 239.251 208.549 239.293 208.625C239.336 208.7 239.348 208.789 239.327 208.874C239.358 208.793 239.419 208.727 239.497 208.69C239.575 208.652 239.665 208.646 239.748 208.672C239.83 208.698 239.9 208.755 239.942 208.831C239.984 208.907 239.996 208.996 239.975 209.08C240.003 208.994 240.063 208.922 240.143 208.881C240.223 208.84 240.316 208.832 240.402 208.859C240.488 208.886 240.559 208.947 240.6 209.027C240.642 209.107 240.65 209.2 240.622 209.286C240.654 209.205 240.715 209.139 240.793 209.102C240.871 209.064 240.961 209.058 241.043 209.084C241.126 209.11 241.195 209.167 241.238 209.243C241.28 209.319 241.292 209.407 241.271 209.492C241.302 209.411 241.363 209.345 241.442 209.308C241.52 209.27 241.609 209.264 241.692 209.29C241.775 209.317 241.844 209.373 241.886 209.449C241.929 209.525 241.941 209.614 241.92 209.698C241.947 209.612 242.007 209.54 242.087 209.499C242.167 209.458 242.26 209.45 242.346 209.477C242.432 209.504 242.503 209.565 242.545 209.645C242.586 209.725 242.594 209.818 242.567 209.904C242.598 209.823 242.659 209.757 242.737 209.72C242.816 209.682 242.905 209.676 242.988 209.702C243.07 209.728 243.14 209.785 243.182 209.861C243.224 209.937 243.236 210.026 243.215 210.11C243.247 210.029 243.308 209.963 243.386 209.926C243.464 209.888 243.554 209.882 243.636 209.908C243.719 209.935 243.788 209.991 243.831 210.067C243.873 210.143 243.885 210.232 243.864 210.316C243.891 210.23 243.952 210.158 244.032 210.117C244.112 210.076 244.205 210.068 244.29 210.095C244.376 210.122 244.448 210.183 244.489 210.263C244.53 210.343 244.538 210.436 244.511 210.522C244.542 210.441 244.604 210.375 244.682 210.338C244.76 210.3 244.849 210.294 244.932 210.32C245.015 210.347 245.084 210.403 245.126 210.479C245.169 210.555 245.181 210.644 245.16 210.728C245.187 210.642 245.247 210.57 245.327 210.529C245.407 210.488 245.5 210.48 245.586 210.507C245.672 210.534 245.743 210.595 245.785 210.675C245.826 210.755 245.834 210.848 245.807 210.934C245.838 210.853 245.899 210.787 245.977 210.75C246.056 210.712 246.145 210.706 246.228 210.732C246.31 210.758 246.38 210.815 246.422 210.891C246.465 210.967 246.476 211.055 246.455 211.14C246.487 211.059 246.548 210.993 246.626 210.956C246.704 210.918 246.794 210.912 246.876 210.938C246.959 210.965 247.029 211.021 247.071 211.097C247.113 211.173 247.125 211.262 247.104 211.346C247.131 211.26 247.192 211.188 247.272 211.147C247.352 211.106 247.445 211.098 247.531 211.125C247.616 211.152 247.688 211.213 247.729 211.293C247.771 211.373 247.778 211.466 247.751 211.552C247.783 211.471 247.844 211.405 247.922 211.368C248 211.33 248.09 211.324 248.172 211.35C248.255 211.376 248.324 211.433 248.367 211.509C248.409 211.585 248.421 211.674 248.4 211.758C248.431 211.676 248.492 211.61 248.571 211.572C248.649 211.534 248.739 211.528 248.822 211.555C248.905 211.581 248.975 211.639 249.017 211.715C249.059 211.791 249.07 211.881 249.048 211.965C249.076 211.879 249.136 211.808 249.216 211.767C249.296 211.725 249.389 211.717 249.475 211.745C249.561 211.772 249.632 211.832 249.673 211.912C249.715 211.992 249.723 212.085 249.695 212.171C249.727 212.09 249.788 212.025 249.866 211.987C249.944 211.95 250.034 211.944 250.116 211.97C250.199 211.996 250.269 212.053 250.311 212.128C250.353 212.204 250.365 212.293 250.344 212.377C250.375 212.296 250.436 212.231 250.515 212.193C250.593 212.156 250.682 212.15 250.765 212.176C250.848 212.202 250.917 212.259 250.959 212.335C251.002 212.41 251.014 212.499 250.993 212.583C251.02 212.497 251.08 212.426 251.16 212.385C251.24 212.343 251.333 212.335 251.419 212.363C251.505 212.39 251.576 212.45 251.618 212.53C251.659 212.61 251.667 212.703 251.64 212.789C251.671 212.708 251.732 212.643 251.81 212.605C251.889 212.568 251.978 212.562 252.061 212.588C252.143 212.614 252.213 212.671 252.255 212.747C252.297 212.822 252.309 212.911 252.288 212.995C252.316 212.909 252.376 212.838 252.456 212.797C252.536 212.755 252.629 212.747 252.715 212.775C252.801 212.802 252.872 212.862 252.914 212.942C252.955 213.022 252.963 213.115 252.935 213.201C252.967 213.12 253.028 213.055 253.106 213.017C253.184 212.98 253.274 212.974 253.357 213C253.439 213.026 253.509 213.083 253.551 213.158C253.593 213.234 253.605 213.323 253.584 213.407C253.616 213.326 253.677 213.261 253.755 213.223C253.833 213.186 253.923 213.18 254.005 213.206C254.088 213.232 254.157 213.289 254.2 213.365C254.242 213.44 254.254 213.529 254.233 213.613C254.26 213.527 254.32 213.456 254.4 213.415C254.48 213.373 254.573 213.365 254.659 213.393C254.745 213.42 254.817 213.48 254.858 213.56C254.899 213.64 254.907 213.733 254.88 213.819C254.911 213.738 254.972 213.673 255.051 213.635C255.129 213.598 255.218 213.592 255.301 213.618C255.384 213.644 255.453 213.701 255.495 213.777C255.538 213.852 255.549 213.941 255.529 214.025C255.56 213.944 255.621 213.879 255.699 213.841C255.777 213.804 255.867 213.798 255.95 213.824C256.032 213.85 256.102 213.907 256.144 213.983C256.186 214.058 256.198 214.147 256.177 214.231C256.204 214.145 256.265 214.074 256.345 214.033C256.425 213.991 256.518 213.983 256.604 214.011C256.689 214.038 256.761 214.098 256.802 214.178C256.844 214.258 256.852 214.351 256.824 214.437C256.856 214.356 256.917 214.291 256.995 214.253C257.073 214.216 257.163 214.21 257.245 214.236C257.328 214.262 257.397 214.319 257.44 214.395C257.482 214.47 257.494 214.559 257.473 214.643C257.504 214.562 257.565 214.497 257.644 214.459C257.722 214.422 257.811 214.416 257.894 214.442C257.977 214.468 258.046 214.525 258.088 214.601C258.131 214.676 258.142 214.765 258.122 214.849C258.149 214.764 258.209 214.692 258.289 214.651C258.369 214.609 258.462 214.601 258.548 214.629C258.634 214.656 258.705 214.716 258.747 214.796C258.788 214.876 258.796 214.969 258.769 215.055C258.811 215.069 258.856 215.074 258.901 215.071C258.945 215.067 258.989 215.055 259.028 215.034C259.068 215.014 259.104 214.985 259.132 214.951C259.161 214.917 259.183 214.877 259.197 214.835L259.564 213.684C259.591 213.598 259.584 213.505 259.542 213.424C259.501 213.344 259.429 213.284 259.344 213.256Z" fill="#FF9B19"/>
<path d="M260.878 216.066C260.833 215.927 260.821 215.78 260.845 215.636C260.868 215.493 260.925 215.357 261.012 215.24C261.08 215.134 261.125 215.016 261.145 214.892C261.165 214.768 261.159 214.641 261.128 214.52C261.096 214.398 261.04 214.284 260.963 214.185C260.886 214.086 260.789 214.004 260.679 213.944C260.543 213.872 260.391 213.836 260.237 213.838C260.084 213.841 259.933 213.882 259.799 213.959C259.666 214.036 259.554 214.145 259.475 214.276C259.395 214.408 259.35 214.557 259.343 214.711C259.345 214.855 259.313 214.997 259.249 215.126C259.186 215.255 259.092 215.367 258.977 215.452C258.774 215.586 258.613 215.774 258.513 215.995C258.413 216.217 258.377 216.462 258.41 216.702C258.444 216.943 258.545 217.169 258.701 217.355C258.858 217.541 259.063 217.678 259.295 217.752C259.526 217.826 259.774 217.832 260.009 217.771C260.244 217.71 260.457 217.583 260.623 217.406C260.789 217.229 260.902 217.008 260.948 216.77C260.994 216.531 260.971 216.285 260.883 216.058L260.878 216.066ZM259.441 217.28C259.307 217.237 259.189 217.156 259.101 217.046C259.014 216.937 258.96 216.803 258.949 216.664C258.937 216.524 258.966 216.383 259.034 216.26C259.102 216.137 259.205 216.037 259.33 215.973C259.455 215.908 259.596 215.882 259.735 215.898C259.875 215.914 260.007 215.97 260.114 216.061C260.221 216.152 260.299 216.272 260.338 216.407C260.377 216.542 260.375 216.685 260.332 216.819C260.274 216.998 260.148 217.147 259.982 217.233C259.815 217.32 259.62 217.336 259.441 217.28Z" fill="#FF9B19"/>
<path d="M267.704 183.798L232.629 172.644C232.453 172.588 232.265 172.686 232.209 172.862L226.749 190.031C226.693 190.207 226.791 190.395 226.967 190.451L262.042 201.605C262.218 201.661 262.406 201.564 262.462 201.388L267.922 184.219C267.978 184.042 267.88 183.854 267.704 183.798Z" fill="#FFB657"/>
<path d="M229.184 187.59L232.774 176.277C232.847 176.048 232.964 175.835 233.119 175.652C233.273 175.468 233.463 175.317 233.676 175.206C233.889 175.096 234.122 175.029 234.361 175.008C234.6 174.988 234.841 175.015 235.07 175.088L264.292 184.381C264.521 184.454 264.733 184.57 264.917 184.725C265.1 184.879 265.251 185.068 265.362 185.281C265.472 185.494 265.539 185.727 265.559 185.966C265.58 186.204 265.553 186.445 265.48 186.674L261.654 198.697C261.566 198.971 261.374 199.199 261.119 199.331C260.863 199.463 260.566 199.489 260.292 199.402L230.37 189.895C230.14 189.822 229.927 189.705 229.743 189.549C229.559 189.394 229.408 189.204 229.297 188.99C229.187 188.775 229.12 188.541 229.101 188.301C229.081 188.061 229.11 187.82 229.184 187.59Z" fill="#FFAE45"/>
<path d="M261.04 185.134C261.022 185.191 260.981 185.239 260.927 185.267C260.874 185.295 260.811 185.3 260.753 185.282C260.696 185.263 260.648 185.223 260.62 185.169C260.592 185.115 260.587 185.053 260.606 184.995C260.587 185.053 260.547 185.101 260.493 185.128C260.439 185.156 260.377 185.161 260.319 185.143C260.262 185.125 260.214 185.084 260.186 185.03C260.158 184.977 260.153 184.914 260.171 184.856C260.153 184.913 260.112 184.961 260.059 184.988C260.005 185.016 259.943 185.021 259.886 185.003C259.829 184.985 259.781 184.945 259.753 184.892C259.725 184.839 259.719 184.777 259.737 184.719C259.718 184.777 259.678 184.825 259.624 184.853C259.57 184.88 259.508 184.886 259.45 184.867C259.393 184.849 259.345 184.808 259.317 184.755C259.289 184.701 259.284 184.638 259.302 184.581C259.284 184.638 259.243 184.686 259.19 184.714C259.136 184.742 259.073 184.747 259.016 184.729C258.958 184.71 258.91 184.67 258.883 184.616C258.855 184.562 258.85 184.5 258.868 184.442C258.849 184.499 258.809 184.546 258.755 184.574C258.702 184.601 258.64 184.606 258.583 184.588C258.526 184.57 258.478 184.531 258.45 184.477C258.422 184.424 258.416 184.362 258.433 184.305C258.415 184.363 258.375 184.411 258.321 184.438C258.267 184.466 258.205 184.471 258.147 184.453C258.089 184.435 258.041 184.394 258.014 184.34C257.986 184.287 257.981 184.224 257.999 184.166C257.981 184.224 257.94 184.272 257.886 184.3C257.833 184.327 257.77 184.333 257.713 184.314C257.655 184.296 257.607 184.255 257.579 184.202C257.552 184.148 257.546 184.085 257.565 184.028C257.546 184.085 257.506 184.132 257.452 184.16C257.399 184.187 257.337 184.192 257.28 184.174C257.222 184.156 257.175 184.116 257.147 184.063C257.119 184.01 257.113 183.948 257.13 183.891C257.112 183.948 257.071 183.996 257.017 184.024C256.964 184.052 256.901 184.057 256.844 184.039C256.786 184.02 256.738 183.98 256.71 183.926C256.683 183.872 256.677 183.81 256.696 183.752C256.677 183.81 256.637 183.858 256.583 183.885C256.529 183.913 256.467 183.918 256.409 183.9C256.352 183.882 256.304 183.841 256.276 183.787C256.248 183.734 256.243 183.671 256.261 183.614C256.243 183.671 256.202 183.718 256.149 183.745C256.096 183.773 256.034 183.778 255.976 183.76C255.919 183.742 255.871 183.702 255.843 183.649C255.815 183.596 255.809 183.534 255.827 183.476C255.805 183.53 255.764 183.573 255.712 183.597C255.66 183.622 255.601 183.626 255.546 183.608C255.491 183.591 255.445 183.553 255.417 183.503C255.389 183.453 255.381 183.394 255.394 183.338C255.376 183.396 255.335 183.444 255.281 183.471C255.228 183.499 255.165 183.504 255.108 183.486C255.05 183.467 255.002 183.427 254.974 183.373C254.947 183.32 254.941 183.257 254.96 183.199C254.941 183.257 254.901 183.305 254.847 183.333C254.793 183.36 254.731 183.366 254.673 183.347C254.616 183.329 254.568 183.288 254.54 183.235C254.512 183.181 254.507 183.118 254.525 183.061C254.468 183.043 254.406 183.048 254.352 183.075C254.299 183.103 254.258 183.15 254.239 183.207C254.106 183.227 253.971 183.194 253.863 183.115C253.755 183.036 253.681 182.918 253.659 182.785C253.641 182.843 253.601 182.891 253.547 182.919C253.493 182.946 253.431 182.952 253.373 182.933C253.315 182.915 253.267 182.874 253.24 182.821C253.212 182.767 253.207 182.704 253.225 182.647C253.168 182.629 253.106 182.634 253.052 182.661C252.998 182.689 252.958 182.736 252.939 182.793C252.806 182.813 252.671 182.78 252.563 182.701C252.454 182.622 252.381 182.504 252.359 182.371C252.302 182.353 252.24 182.359 252.187 182.386C252.134 182.413 252.094 182.46 252.075 182.516C252.091 182.459 252.085 182.397 252.057 182.344C252.029 182.291 251.982 182.251 251.925 182.233C251.906 182.29 251.866 182.337 251.812 182.364C251.759 182.392 251.697 182.397 251.64 182.379C251.583 182.361 251.535 182.321 251.507 182.268C251.479 182.215 251.473 182.153 251.49 182.096C251.481 182.124 251.467 182.151 251.447 182.174C251.428 182.196 251.404 182.215 251.378 182.229C251.351 182.243 251.322 182.251 251.292 182.254C251.262 182.256 251.232 182.253 251.204 182.244C251.175 182.234 251.149 182.22 251.126 182.201C251.103 182.181 251.084 182.158 251.071 182.131C251.057 182.104 251.048 182.075 251.046 182.045C251.043 182.016 251.047 181.986 251.056 181.957C251.038 182.015 250.997 182.063 250.943 182.09C250.89 182.118 250.827 182.123 250.769 182.105C250.712 182.087 250.664 182.046 250.636 181.992C250.608 181.939 250.603 181.876 250.622 181.818C250.603 181.875 250.562 181.923 250.509 181.95C250.456 181.978 250.394 181.983 250.337 181.965C250.279 181.947 250.232 181.907 250.204 181.854C250.176 181.801 250.17 181.739 250.187 181.681C250.169 181.739 250.128 181.787 250.074 181.815C250.021 181.842 249.958 181.848 249.901 181.829C249.843 181.811 249.795 181.77 249.767 181.717C249.74 181.663 249.734 181.6 249.753 181.543C249.734 181.6 249.694 181.648 249.64 181.676C249.586 181.704 249.524 181.709 249.466 181.691C249.409 181.672 249.361 181.632 249.333 181.578C249.305 181.524 249.3 181.462 249.318 181.404C249.3 181.461 249.259 181.508 249.206 181.536C249.152 181.563 249.09 181.568 249.033 181.55C248.976 181.532 248.928 181.493 248.9 181.439C248.872 181.386 248.866 181.324 248.884 181.267C248.827 181.249 248.765 181.254 248.711 181.281C248.658 181.308 248.618 181.355 248.599 181.412C248.467 181.431 248.332 181.397 248.224 181.319C248.116 181.24 248.042 181.122 248.02 180.99C247.998 181.043 247.957 181.086 247.905 181.11C247.854 181.135 247.795 181.138 247.74 181.121C247.686 181.104 247.64 181.067 247.611 181.017C247.583 180.968 247.574 180.909 247.587 180.853C247.568 180.911 247.528 180.959 247.474 180.987C247.42 181.014 247.358 181.02 247.3 181.001C247.243 180.983 247.195 180.942 247.167 180.889C247.139 180.835 247.134 180.772 247.152 180.715C247.143 180.743 247.129 180.77 247.109 180.793C247.09 180.815 247.066 180.834 247.04 180.848C247.013 180.862 246.984 180.87 246.954 180.873C246.924 180.875 246.894 180.872 246.866 180.863C246.837 180.854 246.811 180.839 246.788 180.82C246.765 180.8 246.746 180.777 246.732 180.75C246.719 180.723 246.71 180.694 246.708 180.665C246.705 180.635 246.709 180.605 246.718 180.576C246.7 180.634 246.659 180.682 246.605 180.709C246.552 180.737 246.489 180.742 246.431 180.724C246.374 180.706 246.326 180.665 246.298 180.611C246.27 180.558 246.265 180.495 246.284 180.438C246.226 180.42 246.164 180.425 246.11 180.452C246.057 180.48 246.016 180.527 245.997 180.584C245.865 180.604 245.73 180.57 245.621 180.492C245.513 180.413 245.44 180.294 245.418 180.162C245.399 180.22 245.359 180.268 245.305 180.295C245.251 180.323 245.189 180.328 245.131 180.31C245.074 180.292 245.026 180.251 244.998 180.197C244.97 180.144 244.965 180.081 244.983 180.024C244.926 180.006 244.864 180.011 244.81 180.038C244.757 180.066 244.716 180.113 244.697 180.17C244.564 180.19 244.429 180.156 244.321 180.078C244.213 179.999 244.14 179.88 244.117 179.748C244.061 179.73 243.999 179.735 243.946 179.762C243.892 179.79 243.852 179.836 243.833 179.893C243.849 179.836 243.843 179.774 243.815 179.721C243.787 179.668 243.74 179.628 243.683 179.61C243.664 179.667 243.624 179.714 243.571 179.741C243.517 179.769 243.455 179.774 243.398 179.756C243.341 179.738 243.293 179.698 243.265 179.645C243.237 179.592 243.231 179.53 243.249 179.473C243.23 179.53 243.19 179.578 243.136 179.606C243.082 179.634 243.02 179.639 242.962 179.62C242.904 179.602 242.857 179.561 242.829 179.508C242.801 179.454 242.796 179.391 242.814 179.334C242.796 179.391 242.755 179.439 242.702 179.467C242.648 179.495 242.585 179.5 242.528 179.482C242.47 179.463 242.422 179.423 242.394 179.369C242.367 179.315 242.361 179.253 242.38 179.195C242.361 179.252 242.321 179.3 242.267 179.327C242.214 179.354 242.152 179.36 242.095 179.342C242.038 179.324 241.99 179.284 241.962 179.231C241.934 179.178 241.928 179.116 241.945 179.058C241.917 179.049 241.887 179.045 241.858 179.047C241.828 179.05 241.799 179.058 241.773 179.071C241.746 179.085 241.723 179.103 241.704 179.126C241.684 179.149 241.67 179.175 241.661 179.203C241.528 179.222 241.394 179.188 241.285 179.11C241.177 179.031 241.104 178.913 241.081 178.781C241.063 178.839 241.022 178.887 240.969 178.915C240.915 178.942 240.852 178.948 240.795 178.929C240.737 178.911 240.689 178.87 240.661 178.817C240.634 178.763 240.628 178.7 240.647 178.643C240.628 178.7 240.588 178.747 240.534 178.775C240.481 178.802 240.419 178.807 240.362 178.789C240.305 178.771 240.257 178.731 240.229 178.678C240.201 178.625 240.195 178.563 240.212 178.506C240.191 178.559 240.15 178.602 240.098 178.627C240.046 178.651 239.986 178.655 239.932 178.638C239.877 178.62 239.831 178.582 239.802 178.532C239.774 178.482 239.766 178.423 239.779 178.367C239.761 178.425 239.721 178.473 239.667 178.501C239.613 178.528 239.551 178.534 239.493 178.515C239.435 178.497 239.387 178.456 239.36 178.403C239.332 178.349 239.327 178.286 239.345 178.229C239.288 178.211 239.225 178.216 239.172 178.243C239.118 178.271 239.078 178.318 239.059 178.375C238.926 178.395 238.791 178.361 238.683 178.283C238.574 178.204 238.501 178.086 238.479 177.953C238.461 178.011 238.42 178.059 238.367 178.087C238.313 178.114 238.25 178.12 238.193 178.101C238.135 178.083 238.087 178.042 238.059 177.989C238.032 177.935 238.026 177.872 238.045 177.815C237.987 177.797 237.925 177.802 237.872 177.829C237.818 177.857 237.778 177.904 237.759 177.961C237.626 177.981 237.491 177.947 237.383 177.869C237.274 177.79 237.201 177.672 237.179 177.539C237.161 177.597 237.12 177.645 237.066 177.673C237.013 177.7 236.95 177.706 236.893 177.687C236.835 177.669 236.787 177.628 236.759 177.575C236.732 177.521 236.726 177.458 236.745 177.401C236.687 177.383 236.625 177.388 236.572 177.415C236.518 177.443 236.477 177.49 236.458 177.547C236.326 177.566 236.191 177.532 236.083 177.454C235.975 177.375 235.902 177.257 235.879 177.125C235.85 177.116 235.82 177.113 235.79 177.115C235.761 177.118 235.732 177.126 235.705 177.14C235.678 177.154 235.655 177.172 235.635 177.195C235.616 177.218 235.601 177.245 235.592 177.273L235.347 178.046C235.338 178.074 235.334 178.104 235.337 178.134C235.339 178.164 235.348 178.193 235.361 178.219C235.375 178.246 235.394 178.27 235.417 178.289C235.44 178.308 235.466 178.323 235.495 178.332C235.513 178.274 235.554 178.226 235.607 178.199C235.661 178.171 235.724 178.166 235.781 178.184C235.839 178.203 235.887 178.243 235.915 178.297C235.942 178.351 235.948 178.413 235.929 178.471C235.987 178.489 236.049 178.483 236.102 178.456C236.156 178.429 236.196 178.381 236.216 178.324C236.348 178.305 236.483 178.339 236.591 178.418C236.699 178.496 236.772 178.614 236.795 178.746C236.813 178.688 236.854 178.64 236.908 178.613C236.961 178.585 237.024 178.58 237.081 178.598C237.139 178.617 237.187 178.657 237.215 178.711C237.242 178.764 237.248 178.827 237.229 178.885C237.248 178.828 237.288 178.78 237.342 178.753C237.395 178.726 237.457 178.72 237.514 178.738C237.572 178.756 237.619 178.796 237.647 178.849C237.675 178.902 237.681 178.964 237.664 179.022C237.692 179.031 237.722 179.035 237.751 179.032C237.781 179.03 237.81 179.022 237.836 179.009C237.863 178.995 237.886 178.977 237.906 178.954C237.925 178.931 237.94 178.905 237.949 178.877C238.081 178.858 238.216 178.891 238.324 178.97C238.432 179.049 238.505 179.167 238.528 179.298C238.547 179.241 238.587 179.194 238.64 179.167C238.694 179.139 238.756 179.134 238.813 179.152C238.87 179.17 238.918 179.21 238.946 179.263C238.974 179.316 238.98 179.378 238.963 179.436C238.991 179.445 239.021 179.449 239.05 179.446C239.08 179.444 239.109 179.436 239.135 179.422C239.162 179.409 239.185 179.39 239.204 179.368C239.224 179.345 239.238 179.319 239.247 179.291C239.38 179.272 239.514 179.305 239.622 179.384C239.731 179.463 239.804 179.58 239.827 179.712C239.845 179.655 239.886 179.607 239.939 179.579C239.993 179.551 240.056 179.546 240.113 179.564C240.171 179.583 240.219 179.623 240.246 179.677C240.274 179.731 240.279 179.793 240.261 179.851C240.283 179.798 240.324 179.755 240.375 179.731C240.427 179.707 240.486 179.703 240.541 179.72C240.595 179.737 240.641 179.774 240.67 179.824C240.698 179.874 240.707 179.932 240.694 179.988C240.703 179.959 240.718 179.933 240.737 179.91C240.756 179.887 240.78 179.868 240.807 179.855C240.833 179.841 240.862 179.832 240.892 179.83C240.922 179.827 240.952 179.831 240.981 179.84C241.009 179.849 241.036 179.864 241.058 179.883C241.081 179.902 241.1 179.926 241.114 179.953C241.128 179.979 241.136 180.008 241.138 180.038C241.141 180.068 241.138 180.098 241.128 180.126C241.147 180.069 241.187 180.021 241.241 179.993C241.295 179.965 241.357 179.96 241.415 179.979C241.473 179.997 241.52 180.037 241.548 180.091C241.576 180.145 241.581 180.207 241.563 180.265C241.62 180.283 241.682 180.278 241.736 180.25C241.789 180.223 241.83 180.176 241.849 180.119C241.832 180.176 241.837 180.238 241.865 180.291C241.893 180.344 241.94 180.384 241.997 180.402C242.016 180.345 242.056 180.297 242.11 180.269C242.164 180.241 242.226 180.236 242.284 180.254C242.341 180.273 242.389 180.313 242.417 180.367C242.445 180.421 242.45 180.483 242.432 180.541C242.45 180.483 242.491 180.435 242.544 180.407C242.598 180.38 242.661 180.374 242.718 180.393C242.776 180.411 242.824 180.452 242.851 180.505C242.879 180.559 242.884 180.622 242.866 180.679C242.923 180.697 242.986 180.692 243.039 180.665C243.093 180.637 243.133 180.59 243.152 180.533C243.285 180.513 243.42 180.547 243.528 180.625C243.637 180.704 243.71 180.823 243.732 180.955C243.75 180.897 243.791 180.849 243.845 180.821C243.898 180.794 243.961 180.788 244.018 180.807C244.076 180.825 244.124 180.866 244.152 180.919C244.179 180.973 244.185 181.036 244.166 181.093C244.185 181.036 244.225 180.989 244.279 180.962C244.332 180.934 244.394 180.929 244.451 180.947C244.509 180.965 244.556 181.005 244.584 181.058C244.612 181.111 244.618 181.173 244.601 181.23C244.619 181.173 244.66 181.125 244.713 181.097C244.767 181.069 244.83 181.064 244.887 181.083C244.945 181.101 244.993 181.141 245.021 181.195C245.048 181.249 245.054 181.311 245.035 181.369C245.054 181.311 245.094 181.263 245.148 181.236C245.202 181.208 245.264 181.203 245.322 181.221C245.379 181.24 245.427 181.28 245.455 181.334C245.483 181.388 245.488 181.45 245.47 181.508C245.488 181.451 245.529 181.403 245.582 181.376C245.635 181.349 245.697 181.343 245.755 181.361C245.812 181.379 245.86 181.419 245.888 181.472C245.916 181.525 245.922 181.587 245.904 181.645C245.932 181.654 245.962 181.658 245.992 181.655C246.021 181.653 246.05 181.645 246.077 181.632C246.103 181.618 246.127 181.6 246.146 181.577C246.165 181.554 246.18 181.528 246.189 181.5C246.321 181.481 246.456 181.514 246.564 181.593C246.672 181.672 246.745 181.79 246.768 181.921C246.825 181.939 246.887 181.934 246.94 181.907C246.993 181.88 247.034 181.833 247.053 181.777C247.185 181.757 247.32 181.79 247.428 181.868C247.537 181.947 247.61 182.065 247.633 182.197C247.651 182.139 247.691 182.091 247.745 182.063C247.799 182.036 247.861 182.03 247.919 182.049C247.977 182.067 248.025 182.108 248.052 182.161C248.08 182.215 248.085 182.278 248.067 182.335C248.085 182.278 248.126 182.23 248.18 182.202C248.233 182.174 248.296 182.169 248.353 182.187C248.411 182.206 248.459 182.246 248.487 182.3C248.514 182.354 248.52 182.416 248.501 182.474C248.523 182.421 248.564 182.378 248.616 182.354C248.667 182.33 248.726 182.326 248.781 182.343C248.835 182.36 248.881 182.397 248.91 182.447C248.938 182.497 248.947 182.555 248.934 182.611C248.943 182.582 248.958 182.556 248.977 182.533C248.997 182.51 249.02 182.491 249.047 182.478C249.073 182.464 249.103 182.455 249.132 182.453C249.162 182.45 249.192 182.454 249.221 182.463C249.249 182.472 249.276 182.487 249.299 182.506C249.321 182.525 249.34 182.549 249.354 182.576C249.368 182.602 249.376 182.631 249.379 182.661C249.381 182.691 249.378 182.721 249.369 182.749C249.387 182.692 249.428 182.644 249.481 182.616C249.535 182.588 249.598 182.583 249.655 182.602C249.713 182.62 249.761 182.66 249.788 182.714C249.816 182.768 249.821 182.83 249.803 182.888C249.86 182.906 249.923 182.901 249.976 182.873C250.03 182.846 250.07 182.799 250.089 182.742C250.222 182.722 250.357 182.755 250.465 182.834C250.574 182.913 250.647 183.031 250.669 183.163C250.687 183.106 250.728 183.058 250.781 183.03C250.835 183.002 250.898 182.997 250.955 183.016C251.013 183.034 251.061 183.074 251.089 183.128C251.116 183.182 251.122 183.244 251.103 183.302C251.161 183.32 251.223 183.315 251.276 183.287C251.33 183.26 251.371 183.213 251.39 183.156C251.522 183.136 251.657 183.169 251.766 183.248C251.874 183.327 251.947 183.445 251.969 183.577C251.987 183.52 252.028 183.472 252.082 183.444C252.135 183.416 252.198 183.411 252.256 183.43C252.313 183.448 252.361 183.488 252.389 183.542C252.417 183.596 252.422 183.658 252.403 183.716C252.422 183.659 252.463 183.612 252.516 183.584C252.569 183.557 252.631 183.552 252.688 183.57C252.746 183.588 252.793 183.628 252.821 183.681C252.849 183.734 252.855 183.796 252.838 183.853C252.866 183.862 252.896 183.866 252.926 183.864C252.955 183.862 252.984 183.854 253.011 183.84C253.037 183.827 253.061 183.808 253.08 183.785C253.099 183.763 253.114 183.736 253.123 183.708C253.255 183.689 253.39 183.723 253.498 183.802C253.606 183.88 253.679 183.998 253.702 184.13C253.759 184.148 253.821 184.143 253.874 184.116C253.927 184.089 253.968 184.042 253.987 183.985C253.97 184.042 253.976 184.104 254.004 184.157C254.032 184.21 254.079 184.25 254.136 184.269C254.155 184.212 254.196 184.164 254.249 184.137C254.302 184.109 254.364 184.104 254.421 184.122C254.479 184.14 254.526 184.18 254.554 184.233C254.582 184.286 254.588 184.348 254.571 184.406C254.58 184.377 254.595 184.351 254.614 184.328C254.633 184.305 254.657 184.286 254.684 184.272C254.71 184.259 254.739 184.25 254.769 184.248C254.799 184.245 254.829 184.249 254.857 184.258C254.886 184.267 254.912 184.281 254.935 184.301C254.958 184.32 254.977 184.344 254.991 184.37C255.005 184.397 255.013 184.426 255.015 184.456C255.018 184.486 255.014 184.516 255.005 184.544C255.024 184.487 255.064 184.439 255.118 184.411C255.172 184.383 255.234 184.378 255.292 184.396C255.349 184.415 255.397 184.455 255.425 184.509C255.453 184.563 255.458 184.625 255.44 184.683C255.458 184.626 255.499 184.578 255.552 184.551C255.606 184.524 255.668 184.518 255.725 184.537C255.782 184.555 255.83 184.594 255.858 184.647C255.886 184.701 255.892 184.762 255.874 184.82C255.893 184.762 255.933 184.714 255.987 184.687C256.041 184.659 256.103 184.654 256.161 184.672C256.218 184.69 256.266 184.731 256.294 184.785C256.322 184.838 256.327 184.901 256.309 184.959C256.33 184.905 256.371 184.862 256.423 184.837C256.475 184.813 256.535 184.809 256.589 184.827C256.644 184.844 256.69 184.882 256.719 184.932C256.747 184.982 256.755 185.041 256.741 185.097C256.76 185.04 256.801 184.993 256.854 184.965C256.907 184.938 256.969 184.933 257.027 184.951C257.084 184.969 257.131 185.009 257.159 185.062C257.187 185.115 257.193 185.177 257.176 185.234C257.194 185.176 257.235 185.129 257.289 185.101C257.342 185.073 257.405 185.068 257.463 185.086C257.52 185.105 257.568 185.145 257.596 185.199C257.624 185.253 257.629 185.315 257.61 185.373C257.62 185.344 257.634 185.318 257.653 185.295C257.673 185.272 257.696 185.253 257.723 185.239C257.75 185.226 257.779 185.217 257.808 185.215C257.838 185.212 257.868 185.216 257.897 185.225C257.925 185.234 257.952 185.249 257.975 185.268C257.998 185.287 258.016 185.311 258.03 185.337C258.044 185.364 258.052 185.393 258.055 185.423C258.057 185.453 258.054 185.483 258.045 185.511C258.102 185.529 258.164 185.524 258.218 185.497C258.271 185.469 258.312 185.422 258.331 185.365C258.464 185.345 258.599 185.378 258.707 185.457C258.815 185.536 258.889 185.654 258.911 185.787C258.929 185.729 258.969 185.681 259.023 185.653C259.077 185.626 259.139 185.62 259.197 185.639C259.255 185.657 259.303 185.698 259.33 185.751C259.358 185.805 259.363 185.868 259.345 185.925C259.402 185.943 259.464 185.938 259.518 185.911C259.571 185.884 259.612 185.837 259.631 185.78C259.764 185.76 259.899 185.793 260.007 185.871C260.116 185.95 260.189 186.068 260.211 186.201C260.268 186.219 260.33 186.214 260.383 186.186C260.436 186.159 260.476 186.112 260.495 186.056C260.487 186.084 260.484 186.114 260.486 186.144C260.489 186.174 260.498 186.203 260.512 186.23C260.526 186.256 260.545 186.28 260.568 186.299C260.591 186.318 260.618 186.332 260.647 186.341C260.675 186.35 260.705 186.353 260.735 186.35C260.765 186.347 260.794 186.339 260.82 186.324C260.847 186.31 260.87 186.291 260.89 186.268C260.909 186.245 260.923 186.218 260.932 186.19L261.177 185.419C261.196 185.363 261.192 185.302 261.167 185.248C261.141 185.195 261.096 185.154 261.04 185.134Z" fill="#FF9B19"/>
<path d="M262.071 187.021C262.041 186.928 262.034 186.83 262.049 186.734C262.065 186.638 262.103 186.547 262.16 186.468C262.205 186.397 262.236 186.318 262.249 186.235C262.263 186.152 262.259 186.067 262.238 185.986C262.217 185.904 262.18 185.828 262.128 185.762C262.077 185.695 262.012 185.64 261.938 185.6C261.859 185.558 261.772 185.534 261.683 185.529C261.594 185.525 261.505 185.54 261.422 185.573C261.339 185.607 261.265 185.658 261.204 185.724C261.144 185.79 261.098 185.868 261.071 185.953C261.055 186.002 261.045 186.054 261.043 186.106C261.045 186.203 261.024 186.299 260.982 186.386C260.939 186.474 260.876 186.549 260.797 186.607C260.683 186.683 260.589 186.786 260.523 186.907C260.457 187.027 260.42 187.161 260.416 187.299C260.413 187.436 260.442 187.573 260.502 187.696C260.561 187.82 260.65 187.928 260.759 188.011C260.869 188.093 260.997 188.148 261.133 188.172C261.268 188.195 261.407 188.185 261.538 188.144C261.669 188.102 261.788 188.03 261.886 187.933C261.983 187.836 262.056 187.717 262.098 187.586C262.154 187.4 262.144 187.201 262.071 187.021ZM261.108 187.834C261.019 187.805 260.94 187.751 260.882 187.678C260.823 187.604 260.788 187.515 260.781 187.422C260.773 187.329 260.793 187.235 260.838 187.153C260.884 187.071 260.952 187.004 261.036 186.961C261.119 186.918 261.213 186.901 261.306 186.911C261.399 186.922 261.487 186.96 261.559 187.02C261.63 187.08 261.682 187.16 261.709 187.25C261.735 187.34 261.734 187.436 261.705 187.525C261.687 187.585 261.657 187.641 261.616 187.689C261.576 187.737 261.527 187.776 261.471 187.805C261.416 187.833 261.355 187.851 261.292 187.856C261.23 187.861 261.167 187.854 261.108 187.834Z" fill="#FF9B19"/>
<path d="M209.772 241.385L209.121 243.436C209.048 243.665 209.069 243.913 209.179 244.126C209.29 244.339 209.48 244.5 209.709 244.573L212.062 245.32C212.175 245.357 212.294 245.37 212.413 245.36C212.531 245.35 212.647 245.317 212.752 245.262C212.858 245.208 212.952 245.133 213.029 245.042C213.105 244.951 213.163 244.846 213.2 244.733L213.852 242.681L209.772 241.385Z" fill="#75532F"/>
<path d="M242.583 251.818L241.932 253.868C241.896 253.982 241.883 254.101 241.893 254.22C241.903 254.338 241.936 254.454 241.99 254.559C242.045 254.665 242.12 254.759 242.211 254.835C242.302 254.912 242.407 254.97 242.52 255.006L244.873 255.754C244.987 255.79 245.106 255.804 245.224 255.794C245.343 255.784 245.458 255.751 245.564 255.696C245.67 255.641 245.764 255.567 245.84 255.476C245.917 255.385 245.975 255.28 246.011 255.166L246.662 253.115L242.583 251.818Z" fill="#75532F"/>
<path d="M174.999 109.203L200.449 109.866C200.469 109.865 200.489 109.867 200.508 109.872L214.717 114.574C214.76 114.588 214.797 114.616 214.823 114.654C214.848 114.691 214.86 114.736 214.856 114.782C214.853 114.827 214.834 114.87 214.803 114.903C214.772 114.936 214.731 114.958 214.686 114.965L199.751 117.387C199.72 117.392 199.688 117.388 199.658 117.377L174.94 109.59C174.899 109.572 174.864 109.542 174.842 109.502C174.82 109.463 174.812 109.418 174.819 109.373C174.825 109.329 174.847 109.288 174.879 109.257C174.912 109.226 174.954 109.207 174.999 109.203Z" fill="#C5DDF0"/>
<path d="M171.382 107.455C171.382 107.455 145.778 97.6072 139.228 98.1937C132.679 98.7802 132.733 99.6522 128.915 99.7714C125.098 99.8906 121.179 99.7889 120.98 103.502C120.781 107.215 129.255 115.347 160.742 124.563C192.228 133.778 208.547 144.153 223.396 141.332C238.244 138.511 248.444 135.706 251.908 136.163L265.776 110.344L261.025 108.084L239.146 125.913C239.146 125.913 235.786 128.254 227.794 125.435C219.802 122.617 171.382 107.455 171.382 107.455Z" fill="#DDEBF6"/>
<path d="M131.043 101.685L130.59 103.041L237.549 138.434C238.506 138.221 239.448 138.029 240.331 137.845L131.043 101.685Z" fill="#E8EDEB"/>
<path d="M135.024 98.7314C132.41 99.2062 131.653 99.6792 128.916 99.7596C128.318 99.7769 127.718 99.7909 127.129 99.8139C129.527 104.442 138.249 107.333 143.151 108.116C143.773 106.623 144.385 105.128 144.975 103.62C141.358 102.813 137.874 100.936 135.024 98.7314Z" fill="#98D1F0"/>
<path d="M161.191 128.314C161.056 128.723 161.089 129.17 161.283 129.555C161.476 129.94 161.815 130.232 162.224 130.367L176.254 135.01C180.847 136.529 185.699 137.105 190.52 136.704L191.761 131.207C188.197 128.888 184.342 127.05 180.296 125.742L165.337 120.907C164.929 120.775 164.486 120.809 164.103 121.003C163.72 121.197 163.43 121.534 163.295 121.941L161.191 128.314Z" fill="#BAD1E3"/>
<path d="M166.797 121.222L204.08 149.18C204.108 149.202 204.14 149.219 204.174 149.231L213.712 152.386C213.782 152.409 213.858 152.408 213.928 152.384C213.998 152.359 214.057 152.311 214.097 152.249C214.137 152.186 214.154 152.112 214.147 152.038C214.139 151.965 214.108 151.895 214.056 151.842L192.557 129.107C192.519 129.067 192.472 129.037 192.421 129.019L167.1 120.641C167.025 120.615 166.944 120.618 166.871 120.647C166.797 120.677 166.737 120.731 166.7 120.801C166.664 120.872 166.653 120.952 166.671 121.029C166.689 121.106 166.733 121.175 166.797 121.222Z" fill="#C5DDF0"/>
<path d="M149.578 109.476C149.255 109.368 148.988 109.137 148.835 108.833C148.682 108.529 148.657 108.176 148.764 107.853L149.148 106.692C149.2 106.531 149.284 106.383 149.394 106.255C149.505 106.128 149.639 106.023 149.79 105.947C149.94 105.871 150.105 105.826 150.273 105.813C150.441 105.801 150.61 105.822 150.77 105.875C151.094 105.982 151.361 106.213 151.514 106.518C151.667 106.822 151.693 107.175 151.587 107.498L151.203 108.66C151.15 108.82 151.065 108.968 150.955 109.096C150.845 109.224 150.71 109.328 150.56 109.404C150.409 109.48 150.244 109.525 150.076 109.538C149.908 109.55 149.738 109.529 149.578 109.476Z" fill="#98D1F0"/>
<path d="M154.109 110.975C153.786 110.867 153.518 110.636 153.365 110.331C153.212 110.027 153.186 109.674 153.293 109.35L153.677 108.189C153.785 107.866 154.016 107.598 154.321 107.446C154.625 107.293 154.978 107.267 155.301 107.374C155.461 107.427 155.61 107.511 155.737 107.621C155.865 107.731 155.97 107.866 156.045 108.016C156.121 108.167 156.166 108.331 156.178 108.5C156.19 108.668 156.169 108.837 156.116 108.997L155.732 110.158C155.625 110.482 155.394 110.749 155.089 110.902C154.785 111.056 154.432 111.081 154.109 110.975Z" fill="#98D1F0"/>
<path d="M158.638 112.478C158.315 112.371 158.047 112.14 157.894 111.836C157.741 111.532 157.715 111.179 157.822 110.856L158.206 109.694C158.313 109.371 158.544 109.103 158.849 108.95C159.153 108.797 159.505 108.771 159.829 108.878C160.152 108.985 160.42 109.217 160.573 109.521C160.726 109.826 160.752 110.179 160.645 110.502L160.261 111.664C160.208 111.824 160.124 111.972 160.014 112.099C159.903 112.227 159.769 112.332 159.618 112.407C159.468 112.483 159.304 112.528 159.135 112.54C158.967 112.553 158.798 112.532 158.638 112.478Z" fill="#98D1F0"/>
<path d="M163.169 113.971C162.846 113.864 162.578 113.633 162.425 113.328C162.272 113.024 162.246 112.671 162.353 112.348L162.739 111.187C162.846 110.863 163.077 110.596 163.381 110.442C163.685 110.289 164.038 110.263 164.361 110.37C164.685 110.477 164.952 110.708 165.105 111.013C165.259 111.317 165.284 111.67 165.178 111.993L164.792 113.154C164.739 113.315 164.655 113.463 164.545 113.591C164.435 113.718 164.301 113.823 164.15 113.899C163.999 113.975 163.835 114.02 163.667 114.032C163.499 114.045 163.329 114.024 163.169 113.971Z" fill="#98D1F0"/>
<path d="M167.7 115.47C167.377 115.363 167.109 115.132 166.956 114.827C166.803 114.523 166.777 114.17 166.884 113.847L167.268 112.685C167.375 112.362 167.606 112.094 167.911 111.941C168.215 111.788 168.567 111.762 168.891 111.869C169.214 111.976 169.482 112.207 169.635 112.512C169.788 112.816 169.814 113.168 169.707 113.492L169.323 114.653C169.216 114.977 168.985 115.244 168.681 115.397C168.376 115.551 168.024 115.576 167.7 115.47Z" fill="#98D1F0"/>
<path d="M172.229 116.969C172.069 116.916 171.92 116.832 171.793 116.722C171.665 116.611 171.56 116.477 171.485 116.326C171.409 116.176 171.364 116.011 171.352 115.843C171.339 115.675 171.361 115.506 171.414 115.346L171.798 114.184C171.905 113.861 172.136 113.593 172.44 113.44C172.745 113.287 173.097 113.261 173.421 113.368C173.744 113.475 174.012 113.706 174.165 114.011C174.318 114.315 174.344 114.668 174.237 114.991L173.852 116.152C173.744 116.476 173.513 116.743 173.209 116.896C172.905 117.049 172.552 117.075 172.229 116.969Z" fill="#98D1F0"/>
<path d="M176.752 118.468C176.428 118.361 176.161 118.13 176.008 117.825C175.855 117.521 175.829 117.168 175.936 116.845L176.32 115.683C176.427 115.36 176.658 115.092 176.962 114.939C177.266 114.786 177.619 114.76 177.942 114.867C178.103 114.92 178.251 115.004 178.379 115.114C178.506 115.224 178.611 115.359 178.687 115.509C178.763 115.66 178.808 115.824 178.82 115.993C178.833 116.161 178.812 116.33 178.759 116.49L178.375 117.651C178.268 117.975 178.037 118.242 177.732 118.396C177.428 118.549 177.075 118.575 176.752 118.468Z" fill="#98D1F0"/>
<path d="M181.283 119.973C181.123 119.92 180.975 119.836 180.847 119.726C180.719 119.616 180.614 119.481 180.539 119.331C180.463 119.18 180.417 119.016 180.405 118.847C180.393 118.679 180.414 118.51 180.467 118.35L180.851 117.188C180.958 116.865 181.189 116.597 181.493 116.444C181.798 116.291 182.15 116.265 182.474 116.372C182.797 116.479 183.065 116.71 183.218 117.015C183.371 117.319 183.397 117.671 183.29 117.995L182.906 119.156C182.799 119.48 182.568 119.747 182.264 119.9C181.959 120.053 181.607 120.079 181.283 119.973Z" fill="#98D1F0"/>
<path d="M185.814 121.466C185.491 121.359 185.223 121.128 185.07 120.823C184.917 120.519 184.891 120.166 184.998 119.843L185.382 118.681C185.489 118.358 185.72 118.09 186.025 117.937C186.33 117.784 186.682 117.759 187.006 117.865C187.166 117.918 187.314 118.002 187.442 118.112C187.57 118.223 187.674 118.357 187.75 118.508C187.826 118.658 187.871 118.823 187.883 118.991C187.895 119.159 187.874 119.328 187.821 119.488L187.437 120.65C187.33 120.973 187.099 121.241 186.794 121.394C186.49 121.547 186.137 121.573 185.814 121.466Z" fill="#98D1F0"/>
<path d="M190.342 122.963C190.018 122.856 189.751 122.625 189.598 122.32C189.444 122.016 189.419 121.663 189.525 121.34L189.909 120.178C189.962 120.018 190.046 119.87 190.157 119.743C190.267 119.615 190.401 119.51 190.552 119.435C190.703 119.359 190.867 119.314 191.035 119.302C191.203 119.289 191.372 119.311 191.532 119.364C191.855 119.471 192.123 119.702 192.276 120.006C192.429 120.31 192.455 120.663 192.348 120.986L191.964 122.148C191.911 122.308 191.827 122.456 191.717 122.584C191.607 122.712 191.473 122.816 191.322 122.892C191.171 122.968 191.007 123.013 190.839 123.025C190.671 123.037 190.502 123.016 190.342 122.963Z" fill="#98D1F0"/>
<path d="M194.873 124.462C194.549 124.355 194.282 124.124 194.129 123.82C193.975 123.515 193.949 123.163 194.056 122.839L194.442 121.678C194.495 121.518 194.579 121.369 194.689 121.242C194.799 121.114 194.933 121.009 195.084 120.934C195.235 120.858 195.399 120.813 195.567 120.801C195.735 120.789 195.904 120.81 196.064 120.863C196.388 120.97 196.655 121.201 196.809 121.506C196.962 121.81 196.988 122.162 196.881 122.486L196.495 123.647C196.442 123.807 196.358 123.956 196.248 124.083C196.138 124.211 196.004 124.316 195.853 124.391C195.702 124.467 195.538 124.512 195.37 124.524C195.202 124.537 195.033 124.515 194.873 124.462Z" fill="#98D1F0"/>
<path d="M199.403 125.961C199.08 125.854 198.812 125.623 198.659 125.318C198.506 125.014 198.48 124.662 198.587 124.338L198.971 123.177C199.078 122.853 199.309 122.586 199.614 122.433C199.918 122.279 200.271 122.254 200.594 122.36C200.917 122.468 201.185 122.699 201.338 123.004C201.491 123.308 201.517 123.661 201.41 123.985L201.026 125.145C200.919 125.468 200.688 125.736 200.384 125.889C200.08 126.042 199.727 126.068 199.403 125.961Z" fill="#98D1F0"/>
<path d="M203.934 127.468C203.773 127.415 203.625 127.331 203.497 127.221C203.37 127.111 203.265 126.976 203.189 126.825C203.114 126.675 203.069 126.51 203.056 126.342C203.044 126.174 203.066 126.005 203.119 125.845L203.503 124.683C203.61 124.36 203.841 124.092 204.145 123.939C204.45 123.786 204.802 123.76 205.126 123.867C205.449 123.974 205.717 124.205 205.87 124.51C206.023 124.814 206.049 125.167 205.942 125.49L205.558 126.652C205.45 126.975 205.219 127.243 204.915 127.396C204.61 127.549 204.257 127.575 203.934 127.468Z" fill="#98D1F0"/>
<path d="M208.457 128.958C208.134 128.851 207.866 128.62 207.713 128.316C207.56 128.012 207.534 127.659 207.641 127.335L208.025 126.174C208.078 126.014 208.162 125.865 208.272 125.738C208.382 125.61 208.517 125.505 208.668 125.429C208.819 125.354 208.983 125.308 209.151 125.296C209.32 125.284 209.489 125.305 209.649 125.358C209.809 125.411 209.957 125.495 210.085 125.605C210.212 125.715 210.317 125.85 210.393 126C210.468 126.151 210.513 126.315 210.526 126.483C210.538 126.652 210.517 126.82 210.464 126.981L210.08 128.142C209.973 128.465 209.742 128.733 209.437 128.886C209.133 129.039 208.78 129.065 208.457 128.958Z" fill="#98D1F0"/>
<path d="M212.988 130.458C212.828 130.405 212.68 130.321 212.552 130.211C212.424 130.101 212.319 129.967 212.244 129.816C212.168 129.665 212.122 129.501 212.11 129.333C212.098 129.164 212.119 128.995 212.172 128.835L212.556 127.674C212.663 127.35 212.894 127.083 213.198 126.93C213.503 126.777 213.855 126.751 214.179 126.857C214.502 126.964 214.77 127.196 214.923 127.5C215.076 127.804 215.102 128.157 214.995 128.48L214.611 129.642C214.504 129.965 214.273 130.233 213.969 130.386C213.664 130.539 213.312 130.565 212.988 130.458Z" fill="#98D1F0"/>
<path d="M217.519 131.957C217.196 131.85 216.928 131.619 216.775 131.315C216.622 131.01 216.596 130.658 216.703 130.334L217.088 129.173C217.195 128.849 217.426 128.582 217.731 128.429C218.035 128.276 218.388 128.25 218.711 128.357C218.871 128.409 219.019 128.493 219.147 128.604C219.275 128.714 219.38 128.848 219.455 128.999C219.531 129.15 219.576 129.314 219.588 129.482C219.6 129.65 219.579 129.819 219.526 129.979L219.142 131.141C219.035 131.464 218.804 131.732 218.499 131.885C218.195 132.038 217.842 132.064 217.519 131.957Z" fill="#98D1F0"/>
<path d="M222.05 133.456C221.727 133.349 221.459 133.118 221.306 132.814C221.153 132.509 221.127 132.157 221.234 131.833L221.618 130.672C221.725 130.348 221.956 130.081 222.26 129.928C222.564 129.775 222.917 129.749 223.24 129.855C223.564 129.963 223.831 130.194 223.985 130.498C224.138 130.802 224.164 131.155 224.057 131.478L223.673 132.64C223.566 132.963 223.335 133.231 223.03 133.384C222.726 133.537 222.373 133.563 222.05 133.456Z" fill="#98D1F0"/>
<path d="M4.22072 231.046C4.22072 231.046 0.961718 239.679 10.4104 242.909C23.3341 247.322 100.22 263.381 80.7113 267.488C69.6983 269.806 85.3127 276.129 137.042 283.234C188.772 290.339 278.548 292.881 249.624 279.84C220.701 266.799 341.963 287.009 336.674 265.584L4.22072 231.046Z" fill="#FFE6E1"/>
<path d="M257.721 261.857L65.7614 241.916C65.3779 241.876 65.026 241.686 64.7829 241.386C64.5399 241.087 64.4258 240.703 64.4656 240.32L74.4982 143.74C76.0719 128.59 80.1655 114.159 86.6672 100.846C92.9515 87.9766 101.209 76.6879 111.211 67.2928C121.212 57.8978 132.489 50.8464 144.684 46.3772C157.32 41.7435 170.425 40.0897 183.599 41.4582C196.774 42.8268 209.252 47.1382 220.673 54.2708C231.689 61.151 241.265 70.3531 249.134 81.6201C257.003 92.8871 262.755 105.616 266.257 119.502C269.882 133.867 270.924 148.831 269.35 163.981L259.317 260.561C259.297 260.751 259.241 260.935 259.15 261.103C259.059 261.271 258.936 261.419 258.787 261.539C258.639 261.66 258.469 261.75 258.286 261.804C258.103 261.858 257.911 261.876 257.721 261.857ZM67.5017 239.174L256.575 258.814L266.458 163.68C272.73 103.295 235.425 49.7636 183.299 44.3488C131.173 38.9339 83.6569 83.6531 77.3841 144.039L67.5017 239.174Z" fill="#9B9B9B"/>
<path d="M161.738 251.914C161.347 251.874 160.989 251.679 160.741 251.374C160.493 251.069 160.377 250.678 160.418 250.287L181.976 42.756C182.016 42.3651 182.21 42.0064 182.515 41.7587C182.821 41.511 183.212 41.3947 183.602 41.4353C183.993 41.4759 184.352 41.6701 184.6 41.9752C184.847 42.2803 184.964 42.6713 184.923 43.0622L163.365 250.594C163.325 250.984 163.13 251.343 162.825 251.591C162.52 251.839 162.129 251.955 161.738 251.914Z" fill="#9B9B9B"/>
<path d="M124.748 248.071C124.357 248.03 123.998 247.836 123.75 247.531C123.503 247.226 123.386 246.835 123.427 246.444C124.427 236.818 125.354 227.562 126.251 218.611C131.216 169.049 135.139 129.903 143.937 104.141C152.36 79.4763 162.174 63.8334 168.924 55.0543C176.311 45.4499 181.665 41.7553 181.89 41.5979C182.215 41.3857 182.61 41.3094 182.991 41.3853C183.371 41.4612 183.707 41.6833 183.925 42.0039C184.144 42.3245 184.228 42.718 184.159 43.0999C184.091 43.4818 183.875 43.8216 183.559 44.0463C183.507 44.0829 178.271 47.7182 171.148 57.015C164.568 65.6061 154.995 80.9202 146.738 105.093C138.052 130.525 134.144 169.53 129.197 218.901C128.3 227.855 127.373 237.113 126.372 246.745C126.353 246.939 126.295 247.127 126.203 247.298C126.111 247.47 125.985 247.622 125.835 247.745C125.684 247.868 125.51 247.96 125.324 248.016C125.137 248.072 124.941 248.091 124.748 248.071Z" fill="#9B9B9B"/>
<path d="M94.181 244.86C93.7995 244.821 93.4494 244.631 93.2077 244.333C92.966 244.036 92.8524 243.654 92.892 243.273C96.8055 205.599 99.8967 175.841 104.377 150.815C109.208 123.816 115.273 104.802 124.026 89.1647C129.381 79.6173 135.764 71.1677 143.017 64.0504C148.695 58.449 155.061 53.591 161.962 49.5929C173.518 42.9445 182.114 41.4564 182.475 41.3958C182.663 41.3641 182.855 41.3697 183.04 41.4121C183.225 41.4546 183.4 41.5331 183.555 41.6433C183.71 41.7534 183.842 41.893 183.943 42.0541C184.044 42.2152 184.112 42.3945 184.144 42.582C184.176 42.7695 184.17 42.9613 184.128 43.1466C184.085 43.332 184.007 43.5071 183.896 43.6621C183.786 43.817 183.647 43.9488 183.486 44.0498C183.325 44.1508 183.145 44.2191 182.958 44.2508C182.875 44.264 174.415 45.7443 163.279 52.1794C153.018 58.1084 138.316 69.5832 126.549 90.5923C108.265 123.233 103.559 168.532 95.7631 243.58C95.7213 243.959 95.5316 244.306 95.2354 244.546C94.9391 244.785 94.5601 244.898 94.181 244.86Z" fill="#9B9B9B"/>
<path d="M183.267 44.6722C182.876 44.6316 182.518 44.4374 182.27 44.1323C182.022 43.8272 181.906 43.4362 181.947 43.0453L182.358 39.088C182.398 38.6972 182.592 38.3384 182.898 38.0908C183.203 37.8431 183.594 37.7267 183.985 37.7674C184.375 37.808 184.734 38.0022 184.982 38.3073C185.229 38.6124 185.346 39.0034 185.305 39.3942L184.894 43.3515C184.854 43.7424 184.659 44.1011 184.354 44.3488C184.049 44.5965 183.658 44.7128 183.267 44.6722Z" fill="#9B9B9B"/>
<path d="M231.93 259.206C231.539 259.165 231.181 258.971 230.933 258.666C230.685 258.361 230.569 257.97 230.61 257.579C238.404 182.544 243.109 137.253 231.187 101.492C223.492 78.4098 210.739 64.0675 201.395 56.1003C191.31 47.5015 183.009 44.3221 182.927 44.2902C182.741 44.2247 182.57 44.1227 182.423 43.9902C182.277 43.8577 182.159 43.6973 182.076 43.5185C181.992 43.3397 181.945 43.1461 181.938 42.9489C181.93 42.7518 181.962 42.5551 182.032 42.3705C182.101 42.1858 182.207 42.017 182.343 41.8737C182.478 41.7305 182.641 41.6157 182.822 41.5363C183.002 41.4568 183.197 41.4142 183.394 41.411C183.592 41.4078 183.787 41.4439 183.971 41.5174C184.328 41.6511 192.843 44.9135 203.318 53.8459C209.539 59.1721 215.061 65.2636 219.753 71.9755C225.715 80.4686 230.509 90.0776 233.999 100.555C239.715 117.705 241.946 137.589 241.227 165.027C240.562 190.449 237.471 220.208 233.558 257.881C233.538 258.075 233.48 258.263 233.388 258.434C233.296 258.606 233.17 258.758 233.019 258.881C232.868 259.004 232.694 259.096 232.507 259.152C232.32 259.208 232.124 259.226 231.93 259.206Z" fill="#9B9B9B"/>
<path d="M198.003 255.682C197.612 255.641 197.253 255.447 197.006 255.142C196.758 254.837 196.642 254.446 196.682 254.055C197.683 244.423 198.678 235.172 199.64 226.225C204.947 176.891 209.138 137.924 205.864 111.24C202.754 85.8872 196.531 68.9322 191.859 59.1722C186.802 48.6103 182.425 43.9764 182.379 43.9295C182.115 43.6446 181.974 43.2678 181.986 42.88C181.997 42.4922 182.16 42.1243 182.44 41.8555C182.72 41.5866 183.094 41.4382 183.482 41.4421C183.87 41.446 184.241 41.6019 184.515 41.8764C184.702 42.0719 189.187 46.7887 194.438 57.7105C199.239 67.6896 205.626 85.0153 208.803 110.885C212.118 137.905 207.91 177.018 202.583 226.546C201.622 235.484 200.626 244.739 199.626 254.365C199.584 254.755 199.39 255.112 199.086 255.358C198.782 255.605 198.392 255.721 198.003 255.682Z" fill="#9B9B9B"/>
<path d="M90.4597 251.305C90.4597 251.305 107.934 229.932 139.202 231.338C139.202 231.338 119.415 250.962 90.4597 251.305Z" fill="#3A72AA"/>
<path d="M90.8163 251.297C90.8163 251.297 97.5858 229.36 131.404 215.44C131.404 215.44 121.156 238.718 90.8163 251.297Z" fill="#7689D6"/>
<path d="M90.8148 251.296C90.8148 251.296 92.3519 223.733 118.452 206.459C118.452 206.459 114.012 233.976 90.8148 251.296Z" fill="#3A72AA"/>
<path d="M90.8147 251.296C90.8147 251.296 85.2465 222.546 105.194 198.074C105.194 198.074 111.239 235.825 90.8147 251.296Z" fill="#7689D6"/>
<path d="M90.8123 251.296C90.8123 251.296 79.5289 219.271 90.4339 197.066C90.4339 197.066 100.73 227.055 90.8123 251.296Z" fill="#3A72AA"/>
<path d="M90.9913 251.331C90.9913 251.331 56.6193 250.269 40.7851 231.256C40.7851 231.256 72.9013 232.389 90.9913 251.331Z" fill="#3A72AA"/>
<path d="M90.9925 251.331C90.9925 251.331 62.4714 244.691 48.2585 216.506C48.2593 216.498 85.1925 226.371 90.9925 251.331Z" fill="#7689D6"/>
<path d="M90.9964 251.331C90.9964 251.331 66.2775 236.515 61.1497 205.641C61.145 205.64 84.6384 223.088 90.9964 251.331Z" fill="#3A72AA"/>
<path d="M90.9943 251.33C90.9943 251.33 73.7327 236.203 74.8047 199.647C74.8047 199.647 91.8786 218.501 90.9943 251.33Z" fill="#7689D6"/>
<g filter="url(#filter0_d_449_16654)">
<mask id="mask0_449_16654" style="mask-type:alpha" maskUnits="userSpaceOnUse" x="11" y="149" width="97" height="65">
<path fill-rule="evenodd" clip-rule="evenodd" d="M11.165 169.577C10.9292 168.498 11.6128 167.432 12.6919 167.196L95.7417 149.047C96.8208 148.811 97.8867 149.494 98.1226 150.574L107.449 193.25C107.685 194.329 107.001 195.395 105.922 195.631L22.8723 213.78C21.7932 214.016 20.7272 213.333 20.4914 212.254L11.165 169.577Z" fill="#2A2A3A"/>
</mask>
<g mask="url(#mask0_449_16654)">
<g filter="url(#filter1_d_449_16654)">
<path fill-rule="evenodd" clip-rule="evenodd" d="M11.165 169.577C10.9292 168.498 11.6128 167.432 12.6919 167.196L95.7417 149.047C96.8208 148.811 97.8867 149.494 98.1226 150.574L107.449 193.25C107.685 194.329 107.001 195.395 105.922 195.631L22.8723 213.78C21.7932 214.016 20.7272 213.333 20.4914 212.254L11.165 169.577Z" fill="#2A2A3A"/>
<path fill-rule="evenodd" clip-rule="evenodd" d="M11.165 169.577C10.9292 168.498 11.6128 167.432 12.6919 167.196L95.7417 149.047C96.8208 148.811 97.8867 149.494 98.1226 150.574L107.449 193.25C107.685 194.329 107.001 195.395 105.922 195.631L22.8723 213.78C21.7932 214.016 20.7272 213.333 20.4914 212.254L11.165 169.577Z" stroke="#93A5F9"/>
</g>
<path d="M87.2434 146.143L97.053 146.143L107.708 194.901L82.3411 200.445L87.2434 146.143Z" fill="url(#paint0_linear_449_16654)"/>
<path fill-rule="evenodd" clip-rule="evenodd" d="M84.8202 149.714C84.8597 149.173 85.2503 148.723 85.7803 148.607C86.5766 148.433 87.3176 149.071 87.2639 149.884L84.0169 199.048C83.976 199.668 83.5304 200.185 82.924 200.318C82.0141 200.517 81.169 199.784 81.2367 198.855L84.8202 149.714Z" fill="#596DCE"/>
</g>
<path d="M22.1518 188.153L22.7184 188.029L23.547 184.209L22.7117 184.391L22.208 186.958L20.7089 184.829L19.8394 185.019L22.1518 188.153ZM24.7824 187.521L25.5688 187.35L24.8216 183.93L24.0352 184.102L24.7824 187.521ZM26.5371 184.236L26.8741 184.162C27.2698 184.076 27.5382 184.227 27.6055 184.535C27.6802 184.877 27.4857 185.134 27.0949 185.22L26.7676 185.291L26.5371 184.236ZM27.2717 185.841C28.0728 185.666 28.5444 185.108 28.379 184.35C28.2124 183.588 27.5723 183.329 26.7517 183.508L25.6184 183.756L26.3657 187.175L27.157 187.003L26.92 185.918L27.2717 185.841ZM22.1236 190.319L22.4606 190.245C22.8563 190.158 23.1247 190.31 23.192 190.617C23.2667 190.959 23.0722 191.217 22.6814 191.302L22.3541 191.374L22.1236 190.319ZM22.8582 191.924C23.6593 191.749 24.1309 191.19 23.9654 190.433C23.7989 189.671 23.1588 189.412 22.3382 189.591L21.2049 189.839L21.9521 193.258L22.7435 193.085L22.5065 192.001L22.8582 191.924ZM24.9517 192.602L25.6893 192.441L24.8801 188.739L24.1853 189.095L24.9517 192.602ZM27.1019 191.646C26.9163 191.687 26.7847 191.624 26.7516 191.472C26.7164 191.311 26.792 191.095 27.6047 190.856L27.7018 191.3C27.4505 191.509 27.2582 191.612 27.1019 191.646ZM27.8751 191.999L28.568 191.751L28.2669 190.373C28.1058 189.636 27.6387 189.349 26.9402 189.501C26.5494 189.587 26.2837 189.752 26.084 189.939L26.1179 190.633L26.1347 190.64C26.3992 190.352 26.6661 190.191 26.9152 190.136C27.2327 190.067 27.4389 190.191 27.5289 190.509C26.3022 190.798 25.9911 191.224 26.0935 191.693C26.1843 192.108 26.5388 192.302 26.9687 192.208C27.2764 192.14 27.5396 191.94 27.7929 191.623L27.8751 191.999ZM30.8372 191.193L30.8086 190.524L30.7918 190.518C30.6573 190.675 30.523 190.786 30.3471 190.825C30.1078 190.877 29.9454 190.79 29.8867 190.521L29.6764 189.559L30.541 189.37L30.415 188.793L29.5504 188.982L29.3945 188.269L28.7062 188.609L28.8226 189.141L28.4416 189.224L28.5675 189.801L28.9485 189.718L29.1727 190.743C29.3147 191.393 29.7022 191.621 30.2297 191.505C30.4838 191.45 30.6886 191.333 30.8372 191.193ZM31.5912 187.671C31.5378 187.427 31.3029 187.289 31.0489 187.344C30.7949 187.4 30.639 187.623 30.6924 187.868C30.7447 188.107 30.9807 188.25 31.2347 188.194C31.4887 188.139 31.6435 187.911 31.5912 187.671ZM31.4965 191.172L32.2341 191.011L31.6886 188.515L30.951 188.676L31.4965 191.172ZM33.7714 188.679C34.0449 188.619 34.2299 188.763 34.2929 189.051L34.6078 190.492L35.3454 190.331L34.9974 188.739C34.8629 188.123 34.4402 187.852 33.9469 187.96C33.605 188.035 33.3792 188.243 33.1874 188.653L33.0827 188.174L32.3801 188.425L32.9128 190.863L33.6552 190.7L33.2912 189.035C33.4667 188.807 33.5955 188.717 33.7714 188.679ZM37.6364 189.83L38.3545 189.673L37.809 187.177L37.0714 187.339L37.4343 188.999C37.2589 189.227 37.1262 189.323 36.9504 189.361C36.6768 189.421 36.4968 189.276 36.4327 188.983L36.1189 187.547L35.3764 187.709L35.7233 189.297C35.8589 189.917 36.2804 190.183 36.7738 190.075C37.1206 189.999 37.3475 189.796 37.5382 189.381L37.6364 189.83ZM39.8189 187.357C40.0778 187.301 40.253 187.447 40.3159 187.735L40.6309 189.176L41.3733 189.014L41.0253 187.421C41.0179 187.387 41.0115 187.358 40.9991 187.325C41.1593 187.121 41.2794 187.038 41.4406 187.003C41.6995 186.946 41.8747 187.092 41.9377 187.381L42.2526 188.822L42.9951 188.659L42.6471 187.067C42.5126 186.451 42.0948 186.179 41.6064 186.286C41.2595 186.362 41.0376 186.564 40.8468 186.979C40.6483 186.68 40.3412 186.563 39.9944 186.638C39.672 186.709 39.4587 186.904 39.2773 187.292L39.1791 186.842L38.4764 187.093L39.0091 189.53L39.7516 189.368L39.3823 187.678C39.5375 187.475 39.6577 187.393 39.8189 187.357Z" fill="#F9F9FA"/>
</g>
<g filter="url(#filter2_d_449_16654)">
<mask id="mask1_449_16654" style="mask-type:alpha" maskUnits="userSpaceOnUse" x="249" y="225" width="54" height="38">
<path fill-rule="evenodd" clip-rule="evenodd" d="M253.798 228.666C254.465 226.177 257.023 224.701 259.511 225.367L299.125 235.982C301.613 236.649 303.09 239.206 302.423 241.695L297.858 258.733C297.191 261.221 294.633 262.698 292.145 262.031L252.531 251.416C250.043 250.75 248.566 248.192 249.233 245.704L253.798 228.666Z" fill="#2A2A3A"/>
</mask>
<g mask="url(#mask1_449_16654)">
<g filter="url(#filter3_d_449_16654)">
<path fill-rule="evenodd" clip-rule="evenodd" d="M253.798 228.666C254.465 226.177 257.023 224.701 259.511 225.367L299.125 235.982C301.613 236.649 303.09 239.206 302.423 241.695L297.858 258.733C297.191 261.221 294.633 262.698 292.145 262.031L252.531 251.416C250.043 250.75 248.566 248.192 249.233 245.704L253.798 228.666Z" fill="#2A2A3A"/>
<path fill-rule="evenodd" clip-rule="evenodd" d="M253.798 228.666C254.465 226.177 257.023 224.701 259.511 225.367L299.125 235.982C301.613 236.649 303.09 239.206 302.423 241.695L297.858 258.733C297.191 261.221 294.633 262.698 292.145 262.031L252.531 251.416C250.043 250.75 248.566 248.192 249.233 245.704L253.798 228.666Z" stroke="#93A5F9"/>
</g>
<path d="M300.777 235.681L301.564 235.891C302.808 236.225 303.546 237.503 303.213 238.748L297.115 261.507C296.781 262.751 295.502 263.489 294.258 263.156L285.484 260.805L300.777 235.681Z" fill="url(#paint1_linear_449_16654)"/>
<path fill-rule="evenodd" clip-rule="evenodd" d="M300.171 235.518L301.561 235.89L286.383 261.046L284.791 260.619L300.171 235.518Z" fill="#F7E46C"/>
</g>
<path d="M258.68 241.215L259.241 241.365L261.73 238.352L260.904 238.131L259.279 240.18L258.924 237.6L258.065 237.37L258.68 241.215ZM261.307 241.862L262.085 242.071L262.991 238.69L262.213 238.482L261.307 241.862ZM264.374 239.749L264.707 239.838C265.099 239.943 265.268 240.201 265.186 240.505C265.096 240.843 264.805 240.983 264.418 240.879L264.095 240.792L264.374 239.749ZM264.29 241.512C265.082 241.725 265.757 241.445 265.958 240.696C266.16 239.943 265.71 239.419 264.899 239.201L263.778 238.901L262.873 242.282L263.655 242.491L263.942 241.419L264.29 241.512ZM270.03 243.848L270.438 242.326L268.96 241.93L268.81 242.491L269.568 242.694L269.417 243.259C269.21 243.276 269.024 243.257 268.811 243.2C268.169 243.028 267.836 242.514 268.01 241.862C268.176 241.244 268.779 240.945 269.436 241.121C269.866 241.236 270.195 241.474 270.497 241.757L270.704 240.984C270.419 240.737 270.088 240.54 269.596 240.408C268.47 240.106 267.489 240.599 267.205 241.662C266.921 242.72 267.49 243.571 268.514 243.845C269.07 243.994 269.565 243.961 270.03 243.848ZM270.791 243.083C270.611 243.755 270.94 244.516 271.776 244.74C272.592 244.958 273.282 244.47 273.464 243.789C273.644 243.118 273.318 242.363 272.478 242.138C271.662 241.919 270.972 242.407 270.791 243.083ZM272.311 242.761C272.668 242.857 272.858 243.213 272.754 243.599C272.652 243.981 272.314 244.216 271.943 244.117C271.585 244.021 271.397 243.66 271.501 243.274C271.603 242.892 271.939 242.661 272.311 242.761ZM273.635 245.165L274.364 245.361L275.345 241.7L274.564 241.698L273.635 245.165ZM276.341 245.285C276.002 245.194 275.803 244.877 275.913 244.466C276.022 244.061 276.369 243.864 276.741 243.963C276.91 244.009 277.05 244.088 277.198 244.231L276.927 245.24C276.694 245.317 276.519 245.333 276.341 245.285ZM276.74 245.997L277.454 246.189L278.435 242.528L277.654 242.526L277.332 243.728C277.179 243.527 276.986 243.377 276.74 243.311C276.107 243.141 275.405 243.523 275.191 244.319C275 245.034 275.336 245.673 275.925 245.831C276.249 245.918 276.525 245.852 276.833 245.65L276.74 245.997Z" fill="#F9F9FA"/>
</g>
<defs>
<filter id="filter0_d_449_16654" x="7.11841" y="145" width="108.377" height="76.8271" filterUnits="userSpaceOnUse" color-interpolation-filters="sRGB">
<feFlood flood-opacity="0" result="BackgroundImageFix"/>
<feColorMatrix in="SourceAlpha" type="matrix" values="0 0 0 0 0 0 0 0 0 0 0 0 0 0 0 0 0 0 127 0" result="hardAlpha"/>
<feOffset dx="2" dy="2"/>
<feGaussianBlur stdDeviation="3"/>
<feColorMatrix type="matrix" values="0 0 0 0 0.592 0 0 0 0 0.592 0 0 0 0 0.592 0 0 0 0.250425 0"/>
<feBlend mode="normal" in2="BackgroundImageFix" result="effect1_dropShadow_449_16654"/>
<feBlend mode="normal" in="SourceGraphic" in2="effect1_dropShadow_449_16654" result="shape"/>
</filter>
<filter id="filter1_d_449_16654" x="9.10173" y="147.656" width="100.41" height="68.8605" filterUnits="userSpaceOnUse" color-interpolation-filters="sRGB">
<feFlood flood-opacity="0" result="BackgroundImageFix"/>
<feColorMatrix in="SourceAlpha" type="matrix" values="0 0 0 0 0 0 0 0 0 0 0 0 0 0 0 0 0 0 127 0" result="hardAlpha"/>
<feOffset dy="0.672227"/>
<feGaussianBlur stdDeviation="1.00834"/>
<feColorMatrix type="matrix" values="0 0 0 0 0 0 0 0 0 0 0 0 0 0 0 0 0 0 0.2 0"/>
<feBlend mode="normal" in2="BackgroundImageFix" result="effect1_dropShadow_449_16654"/>
<feBlend mode="normal" in="SourceGraphic" in2="effect1_dropShadow_449_16654" result="shape"/>
</filter>
<filter id="filter2_d_449_16654" x="245.604" y="221.738" width="63.9181" height="47.3915" filterUnits="userSpaceOnUse" color-interpolation-filters="sRGB">
<feFlood flood-opacity="0" result="BackgroundImageFix"/>
<feColorMatrix in="SourceAlpha" type="matrix" values="0 0 0 0 0 0 0 0 0 0 0 0 0 0 0 0 0 0 127 0" result="hardAlpha"/>
<feOffset dx="1.73468" dy="1.73468"/>
<feGaussianBlur stdDeviation="2.60202"/>
<feColorMatrix type="matrix" values="0 0 0 0 0.592 0 0 0 0 0.592 0 0 0 0 0.592 0 0 0 0.250425 0"/>
<feBlend mode="normal" in2="BackgroundImageFix" result="effect1_dropShadow_449_16654"/>
<feBlend mode="normal" in="SourceGraphic" in2="effect1_dropShadow_449_16654" result="shape"/>
</filter>
<filter id="filter3_d_449_16654" x="247.324" y="224.041" width="57.0083" height="40.4817" filterUnits="userSpaceOnUse" color-interpolation-filters="sRGB">
<feFlood flood-opacity="0" result="BackgroundImageFix"/>
<feColorMatrix in="SourceAlpha" type="matrix" values="0 0 0 0 0 0 0 0 0 0 0 0 0 0 0 0 0 0 127 0" result="hardAlpha"/>
<feOffset dy="0.583049"/>
<feGaussianBlur stdDeviation="0.874573"/>
<feColorMatrix type="matrix" values="0 0 0 0 0 0 0 0 0 0 0 0 0 0 0 0 0 0 0.2 0"/>
<feBlend mode="normal" in2="BackgroundImageFix" result="effect1_dropShadow_449_16654"/>
<feBlend mode="normal" in="SourceGraphic" in2="effect1_dropShadow_449_16654" result="shape"/>
</filter>
<linearGradient id="paint0_linear_449_16654" x1="84.3695" y1="148.915" x2="95.0249" y2="197.673" gradientUnits="userSpaceOnUse">
<stop stop-color="#93A5F9"/>
<stop offset="1" stop-color="#314498"/>
</linearGradient>
<linearGradient id="paint1_linear_449_16654" x1="289.136" y1="247.172" x2="300.164" y2="250.127" gradientUnits="userSpaceOnUse">
<stop stop-color="#F7E46C"/>
<stop offset="1" stop-color="#ECC43A"/>
</linearGradient>
</defs>
</svg>
